<?xml version="1.0" encoding="UTF-8" standalone="no"?>
<!-- Creator: CorelDRAW -->

<svg
   xmlns:dc="http://purl.org/dc/elements/1.1/"
   xmlns:cc="http://creativecommons.org/ns#"
   xmlns:rdf="http://www.w3.org/1999/02/22-rdf-syntax-ns#"
   xmlns:svg="http://www.w3.org/2000/svg"
   xmlns="http://www.w3.org/2000/svg"
   xmlns:xlink="http://www.w3.org/1999/xlink"
   xmlns:sodipodi="http://sodipodi.sourceforge.net/DTD/sodipodi-0.dtd"
   xmlns:inkscape="http://www.inkscape.org/namespaces/inkscape"
   xml:space="preserve"
   width="5.8530598in"
   height="6.3976998in"
   style="clip-rule:evenodd;fill-rule:evenodd;image-rendering:optimizeQuality;shape-rendering:geometricPrecision;text-rendering:geometricPrecision"
   viewBox="0 0 5.85306 6.39769"
   id="svg3336"
   version="1.1"
   inkscape:version="0.91 r13725"
   sodipodi:docname="Ashtamangala Lotus.svg"><title
   id="title3438">Ashtamangala Lotus</title><metadata
   id="metadata3436"><rdf:RDF><cc:Work
       rdf:about=""><dc:format>image/svg+xml</dc:format><dc:type
         rdf:resource="http://purl.org/dc/dcmitype/StillImage" /><dc:title>Ashtamangala Lotus</dc:title><dc:creator><cc:Agent><dc:title>Christopher J. Fynn</dc:title></cc:Agent></dc:creator><dc:contributor><cc:Agent><dc:title>Christopher J. Fynn</dc:title></cc:Agent></dc:contributor><dc:rights><cc:Agent><dc:title>Copyright © 2105  by Christopher J. Fynn. All rights reserved.</dc:title></cc:Agent></dc:rights><cc:license
         rdf:resource="http://creativecommons.org/licenses/by-sa/3.0/" /><dc:description> Lotus or padma  - one of the eight auspicious symbols (Ashtamangala)</dc:description><dc:date>2015-07-20</dc:date><dc:publisher><cc:Agent><dc:title>Christopher J. Fynn</dc:title></cc:Agent></dc:publisher><dc:language>lotus, padma, Tibetan, Tibet, Bhutan, auspicious symbol, pink</dc:language></cc:Work><cc:License
       rdf:about="http://creativecommons.org/licenses/by-sa/3.0/"><cc:permits
         rdf:resource="http://creativecommons.org/ns#Reproduction" /><cc:permits
         rdf:resource="http://creativecommons.org/ns#Distribution" /><cc:requires
         rdf:resource="http://creativecommons.org/ns#Notice" /><cc:requires
         rdf:resource="http://creativecommons.org/ns#Attribution" /><cc:permits
         rdf:resource="http://creativecommons.org/ns#DerivativeWorks" /><cc:requires
         rdf:resource="http://creativecommons.org/ns#ShareAlike" /></cc:License></rdf:RDF></metadata><sodipodi:namedview
   pagecolor="#ffffff"
   bordercolor="#666666"
   borderopacity="1"
   objecttolerance="10"
   gridtolerance="10"
   guidetolerance="10"
   inkscape:pageopacity="0"
   inkscape:pageshadow="2"
   inkscape:window-width="1280"
   inkscape:window-height="712"
   id="namedview3434"
   showgrid="false"
   inkscape:zoom="0.93957379"
   inkscape:cx="263.38769"
   inkscape:cy="287.89649"
   inkscape:window-x="-4"
   inkscape:window-y="-4"
   inkscape:window-maximized="1"
   inkscape:current-layer="svg3336"
   showborder="false"
   fit-margin-top="0.1"
   fit-margin-left="0.1"
   fit-margin-bottom="0.1"
   fit-margin-right="0.1" />
 <defs
   id="defs3338"><style
     type="text/css"
     id="style3340">
   <![CDATA[
    .fil8 {fill:none}
    .fil28 {fill:black}
    .fil4 {fill:#00A859}
    .fil5 {fill:#48887B}
    .fil27 {fill:#F7ADAF}
    .fil21 {fill:url(#id0)}
    .fil14 {fill:url(#id1)}
    .fil7 {fill:url(#id2)}
    .fil12 {fill:url(#id3)}
    .fil26 {fill:url(#id4)}
    .fil6 {fill:url(#id5)}
    .fil3 {fill:url(#id6)}
    .fil18 {fill:url(#id7)}
    .fil23 {fill:url(#id8)}
    .fil1 {fill:url(#id9)}
    .fil2 {fill:url(#id10)}
    .fil17 {fill:url(#id11)}
    .fil25 {fill:url(#id12)}
    .fil10 {fill:url(#id13)}
    .fil20 {fill:url(#id14)}
    .fil11 {fill:url(#id15)}
    .fil19 {fill:url(#id16)}
    .fil9 {fill:url(#id17)}
    .fil24 {fill:url(#id18)}
    .fil15 {fill:url(#id19)}
    .fil13 {fill:url(#id20)}
    .fil22 {fill:url(#id21)}
    .fil0 {fill:url(#id22)}
    .fil16 {fill:url(#id23)}
   ]]>
  </style><linearGradient
     id="id0"
     gradientUnits="userSpaceOnUse"
     x1="0.107858"
     y1="2.93574"
     x2="1.62707"
     y2="2.93574">
   <stop
   offset="0"
   style="stop-color:#00A859"
   id="stop3343" />
   <stop
   offset="0.34902"
   style="stop-color:#24986A"
   id="stop3345" />
   <stop
   offset="1"
   style="stop-color:#48887B"
   id="stop3347" />
  </linearGradient><linearGradient
     id="id1"
     gradientUnits="userSpaceOnUse"
     xlink:href="#id0"
     x1="0.68283403"
     y1="1.90842"
     x2="1.75393"
     y2="1.90842">
  </linearGradient><linearGradient
     id="id2"
     gradientUnits="userSpaceOnUse"
     xlink:href="#id0"
     x1="2.9532199"
     y1="1.0462199"
     x2="3.6656799"
     y2="1.0462199">
  </linearGradient><linearGradient
     id="id3"
     gradientUnits="userSpaceOnUse"
     xlink:href="#id0"
     x1="3.6547799"
     y1="1.60569"
     x2="4.8730602"
     y2="1.60569">
  </linearGradient><linearGradient
     id="id4"
     gradientUnits="userSpaceOnUse"
     xlink:href="#id0"
     x1="3.8030701"
     y1="4.4028702"
     x2="5.21878"
     y2="4.4028702">
  </linearGradient><linearGradient
     id="id5"
     gradientUnits="userSpaceOnUse"
     x1="0.638897"
     y1="1.11897"
     x2="1.58891"
     y2="1.11897">
   <stop
   offset="0"
   style="stop-color:#F7ADAF"
   id="stop3354" />
   <stop
   offset="0.8"
   style="stop-color:#F27073"
   id="stop3356" />
   <stop
   offset="1"
   style="stop-color:#ED3237"
   id="stop3358" />
  </linearGradient><linearGradient
     id="id6"
     gradientUnits="userSpaceOnUse"
     xlink:href="#id5"
     x1="3.13919"
     y1="0.087129802"
     x2="2.8243899"
     y2="0.31749201">
  </linearGradient><linearGradient
     id="id7"
     gradientUnits="userSpaceOnUse"
     x1="3.4414301"
     y1="1.5736001"
     x2="3.1452999"
     y2="2.9735401">
   <stop
   offset="0"
   style="stop-color:#F7ADAF"
   id="stop3362" />
   <stop
   offset="0.560784"
   style="stop-color:#F27073"
   id="stop3364" />
   <stop
   offset="1"
   style="stop-color:#ED3237"
   id="stop3366" />
  </linearGradient><linearGradient
     id="id8"
     gradientUnits="userSpaceOnUse"
     xlink:href="#id5"
     x1="1.08568"
     y1="3.6554201"
     x2="2.28757"
     y2="3.40887">
  </linearGradient><linearGradient
     id="id9"
     gradientUnits="userSpaceOnUse"
     xlink:href="#id5"
     x1="2.4451101"
     y1="0.183854"
     x2="2.54883"
     y2="0.71578997">
  </linearGradient><linearGradient
     id="id10"
     gradientUnits="userSpaceOnUse"
     xlink:href="#id5"
     x1="2.70718"
     y1="0.063444801"
     x2="2.77373"
     y2="0.380279">
  </linearGradient><linearGradient
     id="id11"
     gradientUnits="userSpaceOnUse"
     xlink:href="#id5"
     x1="4.3948002"
     y1="2.0940399"
     x2="3.5451901"
     y2="2.8639901">
  </linearGradient><linearGradient
     id="id12"
     gradientUnits="userSpaceOnUse"
     x1="2.0990701"
     y1="4.34408"
     x2="2.56738"
     y2="3.40361">
   <stop
   offset="0"
   style="stop-color:#F7ADAF"
   id="stop3373" />
   <stop
   offset="0.721569"
   style="stop-color:#F27073"
   id="stop3375" />
   <stop
   offset="1"
   style="stop-color:#ED3237"
   id="stop3377" />
  </linearGradient><linearGradient
     id="id13"
     gradientUnits="userSpaceOnUse"
     xlink:href="#id5"
     x1="2.74475"
     y1="1.49344"
     x2="2.6672101"
     y2="1.98982">
  </linearGradient><linearGradient
     id="id14"
     gradientUnits="userSpaceOnUse"
     x1="1.23885"
     y1="2.66098"
     x2="2.4371099"
     y2="3.18571">
   <stop
   offset="0"
   style="stop-color:#F7ADAF"
   id="stop3381" />
   <stop
   offset="0.6"
   style="stop-color:#F27073"
   id="stop3383" />
   <stop
   offset="1"
   style="stop-color:#ED3237"
   id="stop3385" />
  </linearGradient><linearGradient
     id="id15"
     gradientUnits="userSpaceOnUse"
     xlink:href="#id5"
     x1="3.0889101"
     y1="1.44585"
     x2="2.8866401"
     y2="2.00302">
  </linearGradient><linearGradient
     id="id16"
     gradientUnits="userSpaceOnUse"
     xlink:href="#id5"
     x1="2.46486"
     y1="2.07602"
     x2="2.8490801"
     y2="3.2169099">
  </linearGradient><linearGradient
     id="id17"
     gradientUnits="userSpaceOnUse"
     xlink:href="#id5"
     x1="2.4565499"
     y1="1.55362"
     x2="2.4391899"
     y2="1.91456">
  </linearGradient><linearGradient
     id="id18"
     gradientUnits="userSpaceOnUse"
     xlink:href="#id5"
     x1="3.3261499"
     y1="4.23454"
     x2="2.8989699"
     y2="3.2341001">
  </linearGradient><linearGradient
     id="id19"
     gradientUnits="userSpaceOnUse"
     xlink:href="#id5"
     x1="1.43312"
     y1="2.2381799"
     x2="1.9419"
     y2="2.4015801">
  </linearGradient><linearGradient
     id="id20"
     gradientUnits="userSpaceOnUse"
     xlink:href="#id5"
     x1="2.0081201"
     y1="1.70278"
     x2="2.26878"
     y2="2.0762601">
  </linearGradient><linearGradient
     id="id21"
     gradientUnits="userSpaceOnUse"
     xlink:href="#id5"
     x1="4.21562"
     y1="3.2922001"
     x2="3.3710201"
     y2="3.2226501">
  </linearGradient><linearGradient
     id="id22"
     gradientUnits="userSpaceOnUse"
     xlink:href="#id5"
     x1="2.6728599"
     y1="0.38335001"
     x2="2.9258101"
     y2="0.821711">
  </linearGradient><linearGradient
     id="id23"
     gradientUnits="userSpaceOnUse"
     xlink:href="#id5"
     x1="1.76293"
     y1="2.0399899"
     x2="2.09688"
     y2="2.37395">
  </linearGradient><linearGradient
     inkscape:collect="always"
     xlink:href="#id5"
     id="linearGradient3440"
     gradientUnits="userSpaceOnUse"
     x1="0.638897"
     y1="1.11897"
     x2="1.58891"
     y2="1.11897" /><linearGradient
     inkscape:collect="always"
     xlink:href="#id0"
     id="linearGradient3442"
     gradientUnits="userSpaceOnUse"
     x1="0.107858"
     y1="2.93574"
     x2="1.62707"
     y2="2.93574" /></defs>
 <g
   id="g3445"><g
     id="Layer_x0020_1">
  <metadata
   id="CorelCorpID_0Corel-Layer" />
  <g
   id="_331016472">
   <path
   style="fill:url(#id22)"
   inkscape:connector-curvature="0"
   d="M 2.62554,0.850987 C 2.5615401,0.84991614 2.504989,0.8170343 2.413304,0.7624044 2.4240756,0.6653967 2.4531307,0.6127984 2.519997,0.5400894 2.631383,0.4189714 2.852689,0.3550504 3.012626,0.3542624 3.0517441,0.35407342 3.163334,0.3644671 3.185366,0.40853 3.1603739,0.424152 3.1053504,0.4351599 3.069524,0.4550181 2.957115,0.5173015 2.911745,0.6542621 2.819918,0.7476321 2.7572567,0.8113328 2.716769,0.8396162 2.62554,0.8509861 Z"
   class="fil0"
   id="_325063632" />
   <path
   style="fill:url(#id9)"
   inkscape:connector-curvature="0"
   d="M 2.36959,0.74757 C 2.3402357,0.7011921 2.3383617,0.599586 2.3480625,0.557066 2.387464,0.38431 2.4891805,0.251948 2.6555895,0.152074 2.6333533,0.2262944 2.5986604,0.330767 2.6102352,0.416105 2.4979522,0.4837112 2.3916842,0.579018 2.3695902,0.747569 Z"
   class="fil1"
   id="_325063680" />
   <path
   style="fill:url(#id10)"
   inkscape:connector-curvature="0"
   d="M 2.64088,0.39787 C 2.64261,0.310626 2.65625,0.223366 2.695998,0.136091 2.779998,0.0680911 2.812029,0.0538549 2.840029,0.0458549 2.789053,0.1378705 2.769163,0.2441069 2.771998,0.3360909 2.721589,0.3522484 2.677006,0.3722641 2.64088,0.3978703 Z"
   class="fil2"
   id="_325063056" />
   <path
   style="fill:url(#id6)"
   inkscape:connector-curvature="0"
   d="M 2.808,0.340106 C 2.81613,0.2790667 2.820772,0.155665 2.859102,0.104547 2.903165,0.0765155 3.145117,0.0645156 3.150708,0.0907517 c 0.0049,0.0392283 -0.036882,0.186945 -0.062677,0.221354 -0.08,0.008 -0.196031,0.016 -0.280031,0.028 z"
   class="fil3"
   id="_320414912" />
   <path
   style="fill:#00a859"
   inkscape:connector-curvature="0"
   d="M 2.0182,0.636515 C 2.058594,0.618641 2.256105,0.6727512 2.305318,0.6773023 2.296968,0.7075385 2.344468,0.7707982 2.363019,0.7907353 2.3142629,0.8040896 2.2296177,0.78990065 2.1785307,0.7648613 2.127019,0.739633 2.0372237,0.6936173 2.0182007,0.6365153 Z M 2.459034,0.925176 C 2.4420576,0.8899005 2.4439947,0.8623257 2.4439947,0.82409 c 0.085905,0.059181 0.123039,0.063307 0.22,0.0719999 0.056,0.0799999 0.056,0.0799999 0.08,0.152 -0.103606,0 -0.232913,-0.014898 -0.28496,-0.122913 z"
   class="fil4"
   id="_331011768" />
   <path
   style="fill:#48887b"
   inkscape:connector-curvature="0"
   d="M 2.2377,1.14072 C 2.2177,1.130421 2.199952,1.12124 2.167621,1.114043 2.18096,1.038295 2.287101,0.902201 2.331999,0.832091 c 0.024787,0.008016 0.04159,-0.003984 0.064,-0.012 -3.622e-4,0.0254173 -7.087e-4,0.0508346 -0.00106,0.0762361 -0.054961,0.0450393 -0.116834,0.160834 -0.157244,0.244393 z M 2.05085,1.620609 c 0,-0.129575 0.026457,-0.22411 0.05789,-0.349889 C 2.176724,1.296578 2.139212,1.27425 2.175228,1.300326 2.111149,1.436184 2.139228,1.520767 2.118126,1.649302 2.113796,1.641952 2.062661,1.621318 2.05085,1.620609 Z"
   class="fil5"
   id="_320412464" />
   <path
   style="fill:url(#linearGradient3440)"
   inkscape:connector-curvature="0"
   d="m 0.696802,1.11266 c 0.0291496,0.024299 0.0693542,0.052961 0.102094,0.061764 0.02,-0.012 0.0717322,-0.042 0.0877322,-0.05 C 0.8714944,1.137227 0.7689752,1.087904 0.7340612,1.050188 0.7052581,1.01907 0.7402502,1.01485 0.7519982,1.02581 c 0.0377795,0.03526 0.140787,0.084693 0.177716,0.077559 0.028,-0.012 0.0972755,-0.022882 0.121275,-0.030882 0.039386,-0.0984881 0.087039,-0.133496 0.145701,-0.130834 0.040126,0.001827 0.087858,0.0186299 0.147323,0.0384409 0,0.012 0,0.02 0,0.028 -0.039386,-0.00739 -0.09022,-0.0317165 -0.135984,-0.0324252 -0.058803,-9.2913e-4 -0.109275,0.0294803 -0.116205,0.104016 -0.00954,0.102614 0.121118,0.178992 0.223071,0.177905 0.046362,-4.882e-4 0.086772,-0.017008 0.105401,-0.054299 0.00409,-0.00822 0.00468,-0.017464 1.89e-4,-0.02778 l 0.030205,0.00337 c 0.016976,0.00954 0.020016,0.024976 0.014173,0.035843 -0.02685,0.049843 -0.077402,0.071559 -0.134268,0.07296 -0.116362,0.0029 -0.259118,-0.079102 -0.278819,-0.177716 l -0.0839999,0.018047 c -0.005827,0.069984 0.0237952,0.084094 0.0740156,0.100772 0.016724,0.00556 0.025291,0.014441 0.024063,0.020756 -0.00112,0.00576 -0.010425,0.00943 -0.029008,0.00655 -0.0858896,-0.013307 -0.0790865,-0.022362 -0.10941702,-0.11337 -0.0187244,0.00162 -0.0452283,0.018157 -0.05537,0.02652 -0.0195748,0.032362 0.0110394,0.091307 0.0399527,0.10685 0.008614,0.00713 0.0105827,0.013417 0.007748,0.016976 -0.00474,0.00594 -0.0228661,0.00443 -0.0457165,-0.012898 -0.0309763,-0.022 -0.0372913,-0.04 -0.0339527,-0.088394 -0.0285511,0.00713 -0.0767558,0.045527 -0.106661,0.076142 0.130189,0.092252 0.265071,0.132724 0.42491302,0.12811 0.199638,-0.00575 0.379622,-0.080441 0.404157,-0.289417 0.026409,-0.22481896 -0.280267,-0.26932196 -0.439732,-0.26651896 -0.079858,0.001402 -0.35568502,0.0624881 -0.43110202,0.18368496 -0.0271338,0.024016 -0.0260472,0.049858 -0.0346299,0.069858 -0.0181417,0.044598 -0.001039,0.111338 0.0429448,0.155716 0.016,-0.008 0.0604881,-0.045575 0.0724881,-0.053575 -0.008331,0.00717 -0.0597165,-0.025087 -0.0827243,-0.050079 -0.009465,-0.010284 -0.0184724,-0.015307 -0.0191338,-0.023685 -7.5591e-4,-0.00951 0.018,-0.012 0.0261889,-0.00935 z"
   class="fil6"
   id="_325064112" />
   <path
   style="fill:url(#id2)"
   inkscape:connector-curvature="0"
   d="m 2.95322,1.46358 c 0,-0.19663 0.018331,-0.426913 0.138771,-0.587495 0.012693,0.0679999 0.017827,0.136016 0.016,0.204 l 0.028,-0.034205 C 3.137441,1.005518 3.132561,0.9561163 3.133271,0.908085 3.262562,0.798699 3.496688,0.628826 3.66568,0.628826 3.60968,0.6688259 3.475098,0.726133 3.419995,0.776086 3.215003,0.961865 3.107381,1.148589 3.01472,1.400085 3.00672,1.397215 2.965208,1.451471 2.953224,1.463581 Z M 3.152149,1.375785 C 3.148149,1.359785 3.147989,1.336084 3.139991,1.316084 3.113897,1.324384 3.091424,1.338115 3.072574,1.357249 3.119582,1.14569 3.289739,0.948462 3.444148,0.804793 3.504542,0.7485884 3.584258,0.702714 3.609061,0.7053286 c -0.07022,0.100016 -0.171086,0.246771 -0.27307,0.346755 -0.036,0.02 -0.072,0.049291 -0.108,0.069291 l 0,0.038709 c 0.044,-0.024 0.142724,-0.097055 0.186724,-0.125055 0.084047,-0.00614 0.107228,0.00219 0.117622,0.013433 -0.089024,0.099811 -0.253622,0.285133 -0.380188,0.327322 z"
   class="fil7"
   id="_320406344" />
   <path
   style="fill:#48887b"
   inkscape:connector-curvature="0"
   d="m 1.42994,1.51032 c -0.02,-0.04 -0.037543,-0.088094 -0.037543,-0.120094 0.004,-0.004 0.06063,-0.03063 0.06863,-0.03863 0,0.014425 0.031575,0.041968 0.025181,0.071968 L 1.42994,1.5103203 Z M 1.63605,1.555218 C 1.552381,1.471549 1.533798,1.402289 1.492019,1.32188 1.532917,1.306856 1.594444,1.177943 1.589247,1.169691 1.614066,1.244179 1.643436,1.477565 1.63605,1.555218 Z M 1.396932,0.850998 c 0,-0.028 0.016677,-0.101811 0.012677,-0.133811 0.019653,0.0189134 0.055591,0.121685 0.058913,0.155433 -0.008,0.004 -0.05959,-0.029622 -0.07159,-0.021622 z M 1.596018,1.020084 C 1.577372,0.9666825 1.552333,0.91895 1.496743,0.886336 1.525656,0.8590604 1.626853,0.713454 1.645467,0.671832 1.65953,0.6955485 1.66753,0.7302256 1.669908,0.7682256 c 0.00444,0.0715117 -0.00968,0.209071 -0.07389,0.251858 z"
   class="fil5"
   id="_262689104" />
   <path
   style="fill:#00a859"
   inkscape:connector-curvature="0"
   d="M 2.57334,1.56987 C 2.4958598,1.41491 2.314647,1.306752 2.156002,1.240091 1.969183,1.1615714 1.801688,1.1539651 1.601483,1.1456344 c -0.00265,-0.02652 8.504e-4,-0.053055 -0.00178,-0.07959 0.26,0.012 0.276299,0.014047 0.428299,0.042047 0.05,0.01874 0.108614,0.029386 0.159449,0.05474 0.139874,0.069764 0.346393,0.220756 0.441275,0.34274 -0.017874,0.02263 -0.037527,0.041685 -0.055386,0.064299 z"
   class="fil4"
   id="_262688960" />
   <path
   style="fill:none"
   inkscape:connector-curvature="0"
   d="M 2.30176,1.81006 C 2.2748939,1.76269 2.193744,1.685005 2.151823,1.661052 c 0,-0.135606 0.00334,-0.22096 0.057528,-0.342897 0.063937,0.040126 0.146708,0.084126 0.214724,0.12811 C 2.377666,1.536296 2.313335,1.696343 2.30176,1.81006 Z"
   class="fil8"
   id="_262693832" />
   <path
   style="fill:url(#id17)"
   inkscape:connector-curvature="0"
   d="M 2.39247,1.98009 C 2.354234,1.942673 2.338832,1.929082 2.339005,1.864295 2.3393987,1.722342 2.375808,1.600343 2.463997,1.488091 c 0.028,0.04 0.064898,0.08 0.092897,0.124 -0.00961,0.134488 -0.016976,0.231244 -8.976e-4,0.368 -0.046724,-0.010583 -0.103433,-0.00822 -0.163527,0 z"
   class="fil9"
   id="_262696496" />
   <path
   style="fill:url(#id13)"
   inkscape:connector-curvature="0"
   d="M 2.82401,2.04809 C 2.759994,2.012484 2.671097,1.985287 2.603113,1.98409 2.581208,1.871633 2.581444,1.741397 2.59283,1.627524 2.611665,1.585146 2.70968,1.444957 2.748893,1.435178 c 0.024,0.048 0.057858,0.130378 0.081858,0.182378 -0.030898,0.158929 -0.029228,0.273102 -0.00674,0.430535 z"
   class="fil10"
   id="_262691384" />
   <path
   style="fill:url(#id15)"
   inkscape:connector-curvature="0"
   d="M 2.89104,2.0802 2.853843,2.057901 C 2.836788,1.906059 2.824961,1.756783 2.880378,1.62639 2.892693,1.597398 3.052645,1.412186 3.110614,1.368674 3.127354,1.451209 3.150598,1.578532 3.141858,1.675996 3.016331,1.815114 2.947323,1.906059 2.891039,2.0802 Z"
   class="fil11"
   id="_262690016" />
   <path
   style="fill:url(#id3)"
   inkscape:connector-curvature="0"
   d="M 3.704,2.13228 C 3.6763937,1.994186 3.6547875,1.863981 3.6547875,1.722816 c 0.049024,-0.178204 0.165638,-0.42044 0.289559,-0.501212 0.019134,0.072 0.00876,0.162315 -0.00638,0.238299 -0.016,0.076 -0.043779,0.13011 -0.059779,0.21011 l 0.055512,-0.062205 c 0.016,-0.064 0.03589,-0.137212 0.05589,-0.205212 0.022378,-0.051716 0.241149,-0.160252 0.452188,-0.23559 0.160519,-0.057307 0.332503,-0.087905 0.431291,-0.085716 -0.108173,0.025213 -0.254897,0.070079 -0.34507,0.118803 -0.231386,0.125023 -0.40233,0.292598 -0.575999,0.491999 -0.121102,0.139071 -0.178929,0.272614 -0.248,0.440188 z M 3.754157,2.117508 C 3.785842,2.022437 3.876094,1.850878 3.939999,1.772091 4.102692,1.57154 4.284203,1.385556 4.507998,1.256092 4.594486,1.206045 4.819714,1.118691 4.863714,1.118691 4.679887,1.233588 4.524659,1.455494 4.363998,1.600092 4.232927,1.630927 4.116487,1.660045 4.018109,1.758422 l 0.00189,0.031543 C 4.1454,1.682485 4.249306,1.653997 4.409872,1.638296 c 0.032,0.004 0.138157,0.00118 0.174157,0.00918 -0.115638,0.085905 -0.239086,0.217307 -0.348692,0.313212 -0.184,0.00654 -0.317322,0.074661 -0.48118,0.156819 z"
   class="fil12"
   id="_320411120" />
   <path
   style="fill:url(#id20)"
   inkscape:connector-curvature="0"
   d="m 2.21267,2.15609 c -0.068,-0.1 -0.144677,-0.172 -0.196677,-0.248 C 1.989284,1.851129 1.9353,1.812641 1.966686,1.636831 2.034324,1.622941 2.149205,1.702028 2.175851,1.724233 2.22067,1.759414 2.258622,1.803414 2.287772,1.854264 2.298024,1.881634 2.341599,1.973854 2.341599,1.996358 2.305599,2.044358 2.25267,2.10809 2.21267,2.15609 Z"
   class="fil13"
   id="_262693400" />
   <path
   style="fill:url(#id1)"
   inkscape:connector-curvature="0"
   d="M 1.35285,2.22875 C 1.247622,2.2096162 1.135921,2.1556635 1.039386,2.111506 1.126284,2.055648 1.195118,2.019128 1.268945,2.018089 1.31948,2.0173803 1.371874,2.038719 1.436016,2.060089 1.403622,2.01568 1.344126,1.991774 1.286205,1.992058 1.25915,1.9921997 1.229717,1.994248 1.195245,1.996518 1.136977,1.957368 1.06156,1.907983 0.980316,1.884896 0.905261,1.863573 0.848694,1.841258 0.682946,1.815699 0.7724577,1.798014 0.99219,1.800959 1.071969,1.806059 1.210882,1.814939 1.358756,1.914752 1.468016,1.99209 1.514158,2.024767 1.573543,2.083885 1.617543,2.127885 1.516016,2.138263 1.419811,2.185633 1.35285,2.228751 Z M 1.32633,1.700231 C 1.274928,1.687239 1.199905,1.671302 1.156818,1.672136 0.994928,1.675286 0.840472,1.713711 0.682834,1.78897 0.826062,1.774214 0.980692,1.760198 1.076015,1.772088 c 0.182992,0.022835 0.32022,0.107401 0.459999,0.22 0.041905,0.033748 0.072,0.08 0.108,0.124 0.028,0.004 0.056,0.012 0.088,0.02 C 1.753935,2.058687 1.645306,1.983112 1.600581,1.93371 1.614345,1.909253 1.647967,1.916608 1.668014,1.904592 1.637227,1.848214 1.601463,1.79645 1.563148,1.750466 1.510455,1.687222 1.442109,1.628372 1.360251,1.588088 c 0,0.017181 -0.00318,0.070425 -0.00131,0.090157 0.00751,0.078661 0.089433,0.142283 0.137071,0.201842 l -0.02,0.016 C 1.407524,1.837284 1.35439,1.792308 1.326327,1.700229 Z"
   class="fil14"
   id="_320415608" />
   <path
   style="fill:url(#id19)"
   inkscape:connector-curvature="0"
   d="M 1.696,2.45325 C 1.627008,2.331077 1.511638,2.319471 1.341276,2.291959 1.3811342,2.2253292 1.565921,2.164038 1.631953,2.15777 1.717874,2.14963 1.815024,2.190085 1.876,2.248085 1.970031,2.337518 1.989748,2.398132 2.033748,2.490132 1.954252,2.4739271 1.794992,2.444872 1.696,2.45325 Z"
   class="fil15"
   id="_262690040" />
   <path
   style="fill:url(#id23)"
   inkscape:connector-curvature="0"
   d="m 2.07601,2.50009 c -0.032,-0.032 -0.055575,-0.130126 -0.136,-0.232 -0.040346,-0.051102 -0.1,-0.088 -0.152,-0.132 C 1.79129,2.064374 1.707931,1.996626 1.666451,1.944122 1.779821,1.913839 1.924025,1.948392 2.029884,1.99072 2.089364,2.040279 2.150766,2.119696 2.193348,2.183586 2.147175,2.281491 2.086702,2.406452 2.07601,2.50009 Z"
   class="fil16"
   id="_262695608" />
   <path
   style="fill:url(#id11)"
   inkscape:connector-curvature="0"
   d="M 3.464,2.86409 C 3.649842,2.635366 3.718866,2.481634 3.723102,2.190248 3.853212,2.0979647 4.071952,2.018343 4.216093,2.00417 c 0.080834,-0.00795 0.164299,-1.575e-4 0.259905,0.0097 0,0.376614 -0.264204,0.761117 -0.591149,0.947936 C 3.799605,2.94305 3.615038,2.89179 3.463999,2.86409 Z"
   class="fil17"
   id="_262695752" />
   <path
   style="fill:url(#id7)"
   inkscape:connector-curvature="0"
   d="M 3.15932,3.04667 C 3.230438,2.904418 3.285934,2.760733 3.272044,2.612104 3.2525322,2.40286 3.098769,2.200719 2.928218,2.089506 2.9672573,1.922609 3.049824,1.828719 3.172013,1.712089 3.312485,1.6278056 3.43143,1.554814 3.586721,1.500467 c -1.102e-4,0.197559 0.058094,0.506928 0.071795,0.698157 0,0.336189 -0.089921,0.496881 -0.334503,0.741464 -0.044,0.032 -0.116693,0.074583 -0.164693,0.106583 z"
   class="fil18"
   id="_262690928" />
   <path
   style="fill:url(#id16)"
   inkscape:connector-curvature="0"
   d="M 2.568,3.26009 C 2.334945,3.2230349 2.138316,3.047224 2.101764,2.816028 2.0723625,2.630154 2.1384726,2.411225 2.212,2.248092 2.29589,2.062014 2.338583,2.065982 2.388,2.013982 2.464,2.017982 2.552897,2.007632 2.631055,2.024864 2.82633,2.067888 2.824346,2.085352 2.928062,2.145368 3.089999,2.239084 3.203857,2.429068 3.225636,2.61532 3.241573,2.751509 3.195494,2.869272 3.127998,3.016091 3.112077,3.051839 3.095951,3.072894 3.075951,3.091083 2.963258,3.193681 2.726534,3.285303 2.567999,3.260091 Z"
   class="fil19"
   id="_262695800" />
   <path
   style="fill:url(#id14)"
   inkscape:connector-curvature="0"
   d="M 1.64817,3.10379 C 1.528753,3.0116326 1.430501,2.906719 1.294265,2.809932 1.2512572,2.7793809 1.184612,2.7611132 1.112738,2.7506722 c 0.165055,-0.122724 0.32296,-0.213559 0.531275,-0.242582 0.136598,-0.019039 0.290031,-0.00548 0.423999,0.028 0,0.096 -0.029386,0.19822 -0.00866,0.296 0.051527,0.243165 0.256283,0.428488 0.503858,0.459432 L 2.55877,3.3187502 C 2.506739,3.3366242 2.440518,3.3457892 2.384014,3.3480882 2.150518,3.3576482 1.832849,3.2462772 1.648172,3.1037892 Z"
   class="fil20"
   id="_262689248" />
   <path
   style="fill:url(#linearGradient3442)"
   inkscape:connector-curvature="0"
   d="M 0.619716,3.30393 C 0.6637789,3.2074734 0.720802,3.153222 0.784393,3.123033 0.914645,3.0612063 1.072629,3.1001984 1.204235,3.0840882 L 1.168991,3.0575371 C 1.020472,3.0476474 0.913653,3.0436789 0.768015,3.0800883 0.654377,3.0349703 0.532566,3.0214112 0.406693,3.0238837 c -0.08337,0.00162 -0.168535,0.010299 -0.254315,0.021464 0.187685,-0.068236 0.405448,-0.12959 0.606298,-0.127102 0.274803,0.0034 0.551306,0.116094 0.8094,0.199338 l 0.058992,0.034646 c -0.14822,0.059291 -0.286204,0.133275 -0.414582,0.229559 -0.179118,0.019181 -0.43085,0.0031 -0.592771,-0.077858 z M 1.536833,3.077631 C 1.283243,2.998387 1.033527,2.888308 0.762267,2.884513 0.567102,2.8817728 0.274535,2.9364657 0.107858,3.033048 0.252267,2.904387 0.380488,2.824639 0.512015,2.780229 0.658723,2.730686 0.741275,2.723961 0.889983,2.720087 c 0.0519999,0.044 0.0973227,0.094803 0.158031,0.132 0.064047,0.03926 0.14,0.064 0.212,0.1 0,-0.008 0.004,-0.016 0.008,-0.024 C 1.204786,2.899347 1.122754,2.868701 1.06625,2.828796 1.028675,2.802245 0.9783446,2.75456 0.93711599,2.712229 0.85604519,2.62341 0.80133699,2.501442 0.80401399,2.480088 c 0.0599999,0 0.154661,-0.00957 0.21447201,-0.00501 0.049465,0.00378 0.238047,0.056724 0.262598,0.105827 C 1.196391,2.629377 1.114376,2.688086 1.068013,2.740086 l -4.724e-4,0.03389 c 0.06,0.016 0.122252,0.033654 0.176472,0.06611 0.09811,0.058756 0.223937,0.145921 0.292819,0.237543 z"
   class="fil21"
   id="_262692776" />
   <path
   style="fill:#00a859"
   inkscape:connector-curvature="0"
   d="M 4.73828,3.3676 C 4.74231,3.33001 4.759682,3.317033 4.782752,3.316813 4.846925,3.3161988 4.898941,3.385648 4.961901,3.376057 5.028295,3.365978 5.073507,3.257443 5.064688,3.201112 5.03442,3.008041 4.886263,2.929018 4.722421,2.889475 4.593272,2.858294 4.389382,2.936813 4.295303,3.019428 4.263838,3.017808 4.223067,3.021508 4.129917,3.013098 4.263633,2.869571 4.507035,2.770909 4.687302,2.770909 c 0.413606,0 0.533432,0.444677 0.852755,0.439291 C 5.628514,3.20872 5.650136,3.141161 5.651443,3.0582 5.6518839,3.029901 5.643083,3.019586 5.627994,2.99209 5.595994,2.96409 5.552892,2.94261 5.523994,2.90409 5.49349,2.863429 5.560655,2.830374 5.591411,2.828877 5.672529,2.824987 5.760608,2.932215 5.791993,2.996089 5.821851,3.056861 5.819678,3.15012 5.787003,3.211207 5.730751,3.316419 5.647617,3.394577 5.521492,3.396719 5.409854,3.398609 5.35998,3.356073 5.283996,3.280089 c -0.108,-0.16 -0.108,-0.16 -0.132,-0.176 -0.004,0.048 -0.004,0.048 0.036,0.168 0,0.124598 -0.030472,0.271984 -0.18811,0.289401 C 4.92913,3.56924 4.727997,3.464073 4.73828,3.3676 Z"
   class="fil4"
   id="_262691000" />
   <path
   style="fill:url(#id21)"
   inkscape:connector-curvature="0"
   d="M 3.69026,3.61094 C 3.6626222,3.334484 3.457567,3.090516 3.158119,3.08809 3.2261032,3.0550192 3.377772,2.945224 3.432087,2.903933 3.70637,2.949051 3.955346,3.04661 4.232732,3.055019 c 0.070126,0.00211 0.143779,0.00813 0.195795,-0.00219 -0.079212,0.257527 -0.335606,0.418503 -0.556519,0.52896 -0.064,0.008 -0.113748,0.01715 -0.181748,0.02915 z"
   class="fil22"
   id="_262689992" />
   <path
   style="fill:url(#id8)"
   inkscape:connector-curvature="0"
   d="M 1.39576,3.8333 C 1.173209,3.7673788 1.073934,3.720088 1.013934,3.688088 1.0614772,3.575962 1.146863,3.517616 1.211083,3.449584 1.324563,3.329332 1.505539,3.243537 1.651697,3.177112 1.892453,3.298135 2.096059,3.380608 2.359302,3.396088 2.22031,3.4098203 2.0462,3.78971 2.06409,3.836087 c -0.052,0.008 -0.129968,0.039102 -0.181968,0.051102 -0.177701,0 -0.314897,-0.0031 -0.486362,-0.05389 z"
   class="fil23"
   id="_262691096" />
   <path
   style="fill:url(#id18)"
   inkscape:connector-curvature="0"
   d="M 3.41379,4.34786 C 3.3241996,4.3295293 3.216011,4.310112 3.115995,4.2720806 3.006657,4.2305216 2.872232,4.1717656 2.779728,4.0852306 2.6947202,4.0056559 2.618657,3.8825226 2.599996,3.7680816 c -0.029228,-0.179086 -0.015449,-0.288882 0.084,-0.447999 0.092,-0.032 0.184,-0.068 0.28,-0.104 0.044,-0.028 0.107543,-0.067307 0.155543,-0.095307 0.298173,0 0.500236,0.24833 0.521007,0.528613 0.013827,0.186488 -0.141575,0.528598 -0.226756,0.698472 z"
   class="fil24"
   id="_262690640" />
   <path
   style="fill:url(#id12)"
   inkscape:connector-curvature="0"
   d="M 1.94208,4.40624 C 2.01071,4.360964 2.038521,4.331327 2.056001,4.256083 2.136095,3.911454 2.066347,3.572478 2.436,3.400084 2.488756,3.375486 2.567071,3.334557 2.634015,3.316289 2.540346,3.490808 2.526692,3.692698 2.554991,3.779627 2.596093,3.905816 2.634219,4.015154 2.724361,4.100131 2.545149,4.323154 2.322456,4.421438 2.1177,4.429406 2.065558,4.431426 1.989228,4.414225 1.942078,4.406241 Z"
   class="fil25"
   id="_262690688" />
   <path
   style="fill:#00a859"
   inkscape:connector-curvature="0"
   d="M 0.468015,4.66008 C 0.4319206,4.553781 0.4926606,4.483419 0.584015,4.43608 0.6121567,4.421497 0.659574,4.43106 0.6450385,4.477954 0.6346133,4.511639 0.5865031,4.536363 0.5807866,4.58408 c -0.003134,0.026157 0.005717,0.049527 0.0270078,0.058945 0.0361102,0.016 0.10496,0.014346 0.135779,-0.00735 0.111527,-0.07863 0.0960471,-0.237023 0.152441,-0.36359 0.0799054,-0.179275 0.165905,-0.345464 0.348,-0.44085 l 0.087748,0.028693 c -0.136598,0.09759 -0.207669,0.263023 -0.251748,0.416157 -0.040898,0.14211 0.10663,0.335322 0.260204,0.313637 0.060866,-0.00858 0.118378,-0.041118 0.139795,-0.101638 0.02126,-0.06011 -0.039905,-0.219417 0.07137,-0.196519 0.092157,0.018961 0.132079,0.16685 0.127228,0.247795 -0.00899,0.149874 -0.208913,0.25085 -0.34211,0.245307 C 1.2015094,4.779057 1.1208954,4.714447 1.0400134,4.620085 0.9618403,4.531849 0.9705489,4.481644 0.9640135,4.401282 c -0.008,0.004 -0.016,0.008 -0.028,0.016 0.004,0.08 0.008,0.098803 0.012,0.182803 -0.0516377,0.103291 -0.130504,0.20285 -0.258,0.215134 -0.0839369,0.00809 -0.198535,-0.086031 -0.222,-0.155134 z m 1.46885,-0.752692 c 0.012,-0.02 0.076173,-0.023465 0.120173,-0.031465 l -0.00693,0.04885 c -0.016,0.00203 -0.09326,-0.014756 -0.113244,-0.017386 z"
   class="fil4"
   id="_320406632" />
   <path
   style="fill:#00a859"
   inkscape:connector-curvature="0"
   d="m 3.80307,4.71169 0.02326,0.084394 c -0.05611,0.120252 -0.096693,0.231779 -0.122331,0.36 0.008,0 0.016,0 0.024,0 0.036,-0.1 0.072,-0.204 0.112,-0.308 l 0.01948,0.131827 C 3.776991,5.144241 3.737148,5.325139 3.655999,5.500084 3.601369,5.617879 3.520204,5.7238 3.451322,5.812729 3.338739,5.958036 3.223921,6.064555 3.068,6.164083 2.897496,6.272933 2.790347,6.319484 2.584001,6.348083 2.243498,6.395296 1.87638,6.211438 1.800002,5.860084 1.737167,5.570919 1.941293,5.293423 2.236001,5.308085 2.335717,5.313045 2.454174,5.384242 2.479245,5.480384 2.485415,5.5041 2.483965,5.534022 2.472375,5.608085 2.458643,5.69588 2.350186,5.786226 2.26206,5.793754 2.231477,5.796364 2.172312,5.805534 2.167997,5.768085 2.162767,5.722558 2.181414,5.689739 2.216233,5.676589 2.278327,5.653124 2.377414,5.666054 2.38143,5.595597 2.38291,5.569361 2.37918,5.541739 2.376,5.516085 2.36723,5.445534 2.230551,5.394006 2.179134,5.411676 1.992804,5.47555 1.91315,5.621707 1.936,5.820085 1.968535,6.102179 2.243118,6.212037 2.502346,6.205927 2.59107,6.203847 2.69022,6.19273 2.767999,6.148085 2.992046,6.019487 3.086487,5.920684 3.203227,5.70166 3.262723,5.590054 3.28151,5.49292 3.295999,5.368086 3.332251,5.05522 3.245511,4.736544 3.059999,4.480087 2.956582,4.337095 2.867511,4.295205 2.718834,4.196087 L 2.761826,4.131063 c 0.056,0.024 0.159102,0.101953 0.299102,0.173953 0.150331,0.208157 0.273527,0.415873 0.311559,0.66307 0.01885,0.122551 0.022976,0.249559 0.00351,0.371999 -0.036866,0.231842 -0.043843,0.233449 -0.12,0.387999 -0.067716,0.137449 -0.160787,0.243197 -0.276,0.344 0,0.008 0,0.016 0,0.024 0.138897,-0.11285 0.225464,-0.206 0.311322,-0.359464 0.06474,-0.115685 0.094457,-0.240204 0.124677,-0.368535 0.014787,-0.062756 0.022457,-0.131575 0.024,-0.2 0.00243,-0.108031 0.00357,-0.221086 -0.012,-0.332 C 3.395587,4.605377 3.373445,4.411361 3.35839,4.375849 c 0.048,0.012 0.037606,0.00424 0.089606,0.020236 0.008,-0.024 0.022835,-0.059071 0.034835,-0.087071 0.016,0.112 0.033165,0.235071 0.053165,0.35107 0.004,0.152 0.01663,0.304141 0.00942,0.455999 C 3.540626,5.217217 3.518329,5.31591 3.493416,5.418791 3.464203,5.539499 3.409117,5.627405 3.36266,5.738554 3.311322,5.86142 3.121826,6.008601 3.054755,6.118065 3.137464,6.080569 3.367747,5.818223 3.411684,5.757562 3.524644,5.601657 3.576188,5.419452 3.627999,5.236082 3.655275,5.085248 3.663432,4.943704 3.659952,4.801358 3.657152,4.68709 3.646818,4.572256 3.632818,4.451721 3.614991,4.298115 3.634358,4.136761 3.643889,3.980493 c 0.0058,-0.094315 0.042866,-0.197338 0.05359,-0.317574 0.04,-0.008 0.09852,-0.018835 0.138519,-0.026835 -0.080031,0.355685 -0.090252,0.654267 -0.06,1.012 -0.008,0.056 -0.02,0.112 -0.032,0.172 0.008,0 0.016,0 0.024,0 C 3.779289,4.78336 3.790959,4.74725 3.803069,4.71169 Z"
   class="fil4"
   id="_329482192" />
   <path
   style="fill:url(#id4)"
   inkscape:connector-curvature="0"
   d="M 3.82633,4.79608 3.80307,4.711686 C 3.873763,4.504143 3.960235,4.314742 4.084219,4.12597 4.152203,4.022474 4.229573,3.92449 4.328234,3.825829 4.347919,3.999293 4.269258,4.11123 4.179998,4.30808 c 0.044,-0.06 0.092,-0.12 0.14,-0.184 0.122598,-0.091937 0.271291,-0.138126 0.426283,-0.138126 0.111307,0 0.267889,0.031039 0.36885,0.074299 C 4.942911,4.052613 4.729966,4.066423 4.567998,4.13208 4.409416,4.196332 4.283573,4.279009 4.161684,4.390221 4.032235,4.508237 3.922204,4.649984 3.82633,4.796079 Z M 3.85948,4.979907 3.84,4.84808 c 0.024,-0.044 0.052,-0.088 0.08,-0.132 C 3.997669,4.612127 4.07696,4.507923 4.17233,4.415781 4.277102,4.314584 4.401275,4.227907 4.563999,4.172081 4.772723,4.100459 5.000046,4.072239 5.218786,4.097971 4.947306,4.179404 4.739889,4.194994 4.522047,4.396081 4.460693,4.335294 4.370346,4.352396 4.291417,4.376112 4.259716,4.385642 4.250535,4.392884 4.252441,4.397781 c 0.00192,0.00494 0.014929,0.00756 0.027575,0.00787 0.071827,-0.020409 0.15811,-0.037449 0.218,0.00828 C 4.541071,4.446829 4.561764,4.501395 4.571008,4.580136 4.529606,4.568215 4.480929,4.561632 4.428504,4.562593 4.240331,4.566053 4.070536,4.663884 3.964001,4.816073 3.925607,4.870955 3.888048,4.923002 3.859481,4.9799 Z"
   class="fil26"
   id="_331006632" />
   <path
   style="fill:#f7adaf"
   inkscape:connector-curvature="0"
   d="M 1.06838,4.71116 C 1.032837,4.678058 1.003152,4.642625 0.9834825,4.610058 0.9742545,4.655995 0.9454983,4.703381 0.9075141,4.744294 c 0.0350866,0.097622 0.0703464,0.137953 0.103874,0.139102 0.031795,0.00107 0.090929,-0.057354 0.056992,-0.172236 z"
   class="fil27"
   id="_260474944" />
   <path
   style="fill:#f7adaf"
   inkscape:connector-curvature="0"
   d="M 5.35004,3.37998 C 5.315331,3.357681 5.282576,3.331429 5.249977,3.306075 5.238938,3.350264 5.226197,3.394248 5.208009,3.434327 5.258812,3.51691 5.298654,3.546973 5.3293,3.541571 5.357741,3.536531 5.398922,3.4745 5.35004,3.379981 Z"
   class="fil27"
   id="_260477920" />
   <path
   style="fill:#000000"
   inkscape:connector-curvature="0"
   d="m 1.31845,1.65949 c 0,-0.044 0.00554,-0.071401 0.00954,-0.119401 0.103606,0.036992 0.179653,0.09959 0.253574,0.178236 0.047496,0.05052 0.08874,0.103543 0.122425,0.179338 C 1.810335,1.894483 1.900603,1.916057 1.976603,1.932057 1.931611,1.832923 1.89569,1.695585 1.950666,1.602042 L 2.02106,1.613947 C 2.02989,1.501002 2.04328,1.364813 2.075643,1.251522 1.971643,1.231522 1.820195,1.1899 1.643896,1.1819 1.647696,1.344782 1.679187,1.434388 1.647986,1.596088 1.586332,1.549379 1.552065,1.514214 1.509766,1.4296 1.491089,1.475127 1.461971,1.523143 1.430333,1.551411 1.396065,1.528813 1.375341,1.446514 1.357687,1.410435 1.294931,1.430183 1.231908,1.438592 1.169341,1.43834 1.018853,1.4377101 0.82285297,1.392198 0.70828697,1.290167 0.65866497,1.245962 0.64392487,1.242041 0.62798787,1.196088 0.53475967,0.927569 0.93115287,0.798529 1.1197039,0.803663 c 0.089338,0.002441 0.164142,0.004378 0.248283,0.0324252 0.00224,-0.0268346 0.018772,-0.205228 0.027338,-0.208078 0.028,0.0519999 0.078772,0.149953 0.094457,0.218204 0.100583,-0.151212 0.123039,-0.17674 0.152331,-0.218551 0.012,0 0.023323,0.0157638 0.033874,0.0284252 0.020583,0.0246929 0.02674,0.0683306 0.02715,0.112976 8.504e-4,0.0898739 -0.017905,0.190252 -0.075827,0.263511 0.198929,0.00946 0.311984,-7.087e-4 0.504676,0.063512 0.056,-0.128 0.078756,-0.136897 0.154756,-0.268897 -0.055276,-0.004504 -0.100992,-0.0202992 -0.12759,-0.0312913 -0.077086,-0.0318582 -0.180488,-0.0917322 -0.195165,-0.179811 0.122142,-0.0348976 0.212661,0.00622 0.34,0.0235748 0.017528,-0.227905 0.120567,-0.378661 0.313858,-0.508566 0.067811,-0.0455747 0.177858,-0.133953 0.263039,-0.131023 0,0.012 -0.012457,0.0524724 -0.012457,0.0684723 0.083795,-0.023937 0.240803,-0.04337 0.317795,0.0079528 0,0.105165 -0.00375,0.163228 -0.054236,0.25159 0.045685,0.0110866 0.069323,0.0377322 0.11737,0.0799841 -0.081244,0.0468661 -0.12559,0.0628031 -0.170598,0.0974487 -0.095323,0.07337 -0.138063,0.191748 -0.222771,0.274567 -0.088094,0.0861259 -0.1,0.0719999 -0.148,0.0919999 0.052,0.0959999 0.052,0.0959999 0.088,0.2160001 -0.133386,0.00487 -0.32611,-0.00135 -0.389889,-0.1577791 -0.027401,0.0365196 -0.138645,0.2073861 -0.135622,0.2282041 0.126252,0.082709 0.278173,0.209826 0.377511,0.321574 0.039165,-0.039165 0.10726,-0.124047 0.109764,-0.124047 0.017402,0.037717 0.09074,0.227795 0.097323,0.227795 0.012,-0.027795 0.039732,-0.050803 0.063732,-0.074803 0,-0.235732 0.0054,-0.5171651 0.181181,-0.6929441 0.012,0 0.034961,-0.0435432 0.050961,-0.0475432 0,0.008 -0.023858,0.085118 -0.019858,0.097118 0.076,-0.0479999 0.165842,-0.134582 0.252897,-0.173575 0.298267,-0.133575 0.304,-0.12 0.387999,-0.136 0,0.008 0,0.016 0.004,0.024 -0.036,0.028 -0.078441,0.0539842 -0.108,0.0919999 -0.083087,0.106835 -0.152,0.224 -0.232,0.3360001 0.059449,-0.0113386 0.099811,0.0029 0.148,0.012 -0.064236,0.144598 -0.282598,0.337212 -0.426645,0.394834 0.008,0.076 0.014646,0.149165 0.022646,0.229165 0.072693,-0.037685 0.353118,-0.206488 0.448944,-0.196913 0.011606,0.066047 0.00346,0.224803 0.015464,0.224803 0.033134,-0.198976 0.141701,-0.429684 0.33959,-0.503889 0.004,0.048 0.008,0.115779 0.016,0.167779 0.150472,-0.106205 0.287874,-0.162047 0.428393,-0.204378 0.181559,-0.054709 0.366614,-0.10726 0.595605,-0.071401 l 0,0.028 c -0.036,0.012 -0.069401,0.018 -0.108,0.023591 -0.172,0.143338 -0.332,0.328992 -0.485385,0.492598 0.072976,-0.00819 0.146724,0.00381 0.214724,0.015811 -0.079307,0.1149599 -0.2557,0.244582 -0.344519,0.3409919 0.098945,-0.0046 0.151181,0.00701 0.227181,0.019008 0,0.4345351 -0.222598,0.7755111 -0.578361,1.0019001 0.052016,0.010709 0.101779,0.013559 0.129165,0.021181 0.173291,-0.173291 0.353779,-0.278535 0.600393,-0.277133 0.388173,0.0022 0.609826,0.4437 0.852991,0.439196 0.051921,-9.292e-4 0.08663,-0.066425 0.07789,-0.113102 -0.013622,-0.07274 -0.126378,-0.063449 -0.127921,-0.159354 -0.00107,-0.067449 0.031433,-0.107732 0.101842,-0.1046931 0.116394,0.00504 0.188157,0.095811 0.236488,0.1905041 0.045323,0.088661 0.040803,0.151937 0.00214,0.248441 -0.049102,0.122551 -0.152834,0.215512 -0.313653,0.209149 -0.040961,-0.00161 -0.078079,-0.013039 -0.112819,-0.03 0.032331,0.089701 -0.014236,0.160787 -0.054378,0.175275 -0.045528,0.016457 -0.101512,-0.036299 -0.152346,-0.111118 -0.036646,0.062283 -0.09189,0.110252 -0.183543,0.126157 -0.116803,0.020142 -0.30674,-0.099968 -0.322078,-0.222551 -0.00918,-0.073071 0.040331,-0.099307 0.098094,-0.099386 0.061402,-6.3e-5 0.128708,0.062551 0.172819,0.055023 0.047417,-0.00806 0.072535,-0.074378 0.07211,-0.116016 -0.00183,-0.17348 -0.199685,-0.279763 -0.336519,-0.294141 -0.083685,-0.0088 -0.274976,0.049795 -0.355543,0.103559 0.057118,-0.00433 0.093559,-0.00469 0.135779,0.00524 -0.081055,0.304015 -0.30907,0.473117 -0.57055,0.603857 -0.115197,0.299527 -0.113732,0.624456 -0.096047,0.942833 0.042236,-0.096945 0.09674,-0.234441 0.250787,-0.475322 0.099842,-0.156126 0.212866,-0.303968 0.301259,-0.346015 0.004,0.124 0.012079,0.178535 -0.026047,0.318535 0.136897,-0.093087 0.293291,-0.142614 0.461936,-0.133275 0.198031,0.010945 0.42748,0.116897 0.608109,0.185244 -0.32411,0.037386 -0.563511,0.097008 -0.843999,0.284 0.027748,0.072157 0.067449,0.148252 0.052,0.225559 -0.046268,-0.013213 -0.109417,-0.027543 -0.18063,-0.027843 -0.24285,-0.00102 -0.427259,0.188519 -0.529432,0.392677 -0.078047,0.15589 -0.105039,0.317795 -0.201937,0.529606 -0.039685,0.086724 -0.101669,0.161527 -0.156,0.244 -0.013669,0.020756 -0.032173,0.038268 -0.048598,0.057386 -0.04537,0.052835 -0.088268,0.109795 -0.139401,0.158614 -0.084079,0.080268 -0.170063,0.165149 -0.272,0.232 -0.169527,0.111197 -0.326126,0.162724 -0.535999,0.176 -0.320992,0.020252 -0.753826,-0.151433 -0.7897,-0.51685 -0.03148,-0.319527 0.084834,-0.600582 0.477291,-0.613369 0.142236,-0.00463 0.241795,0.061606 0.280787,0.19422 0.01578,0.053717 0.00594,0.116299 0,0.176 -0.00906,0.090866 -0.155905,0.192 -0.252488,0.206472 -0.054173,0.00811 -0.112016,-0.011024 -0.12389,-0.074472 -0.012094,-0.064598 0.00306,-0.104283 0.06,-0.128 0.059276,-0.024677 0.099527,0.010898 0.14,-0.06 0.00595,-0.010409 0.00561,-0.025024 0,-0.04 -0.017307,-0.046252 -0.07789,-0.090173 -0.128,-0.088 -0.179275,0.00775 -0.244315,0.19559 -0.228378,0.352755 0.02148,0.212362 0.270157,0.387133 0.476377,0.367244 0.146913,-0.014205 0.281952,-0.03526 0.399999,-0.128 0.141512,-0.111181 0.223685,-0.199055 0.304409,-0.35874 0.060063,-0.118834 0.080929,-0.215622 0.09559,-0.345259 0.03389,-0.299874 -0.044488,-0.594172 -0.225811,-0.840361 -0.086551,-0.117512 -0.196567,-0.173842 -0.33444,-0.256567 -0.165685,0.113905 -0.374299,0.221559 -0.583023,0.227401 -0.053181,0.00148 -0.106394,-0.00367 -0.158897,-0.016961 -0.021653,-0.00548 -0.043827,-0.011512 -0.069827,-0.017512 0,-0.008 -0.004,-0.016 -0.008,-0.028 0.032,-0.024 0.064,-0.052 0.096,-0.08 0.028,-0.052 0.036047,-0.050236 0.056,-0.16 0.012173,-0.067008 0.017181,-0.14 0.025181,-0.212 -0.028,-0.008 -0.10337,-0.017732 -0.13537,-0.025732 -0.16,-0.008 -0.361196,-0.019559 -0.522928,-0.058835 -0.114362,0 -0.267149,0.318141 -0.274882,0.428566 -0.00888,0.126803 0.108929,0.248 0.236,0.248 0.025858,0 0.067575,-0.036488 0.079401,-0.057244 C 1.4965603,4.383562 1.3799463,4.243703 1.543993,4.243058 1.692308,4.2424754 1.751316,4.43342 1.727064,4.553625 1.6957255,4.708916 1.486497,4.829829 1.343002,4.839247 1.268577,4.844147 1.183333,4.803341 1.111947,4.748145 1.129821,4.854444 1.062467,4.922098 1.015632,4.928586 0.9630494,4.935876 0.915034,4.865704 0.877727,4.773389 0.8150499,4.829058 0.737554,4.865767 0.680105,4.856727 0.569601,4.839325 0.473381,4.783877 0.427995,4.676082 c -0.043433,-0.103165 0.0455117,-0.244441 0.132,-0.284 0.0500629,-0.022898 0.151842,-9.133e-4 0.12885,0.089023 -0.007984,0.03126 -0.0590078,0.024252 -0.0562046,0.09222 4.5669e-4,0.011039 0.008394,0.02252 0.0273543,0.034756 0.0246456,0.00175 0.0452913,-0.00222 0.0627086,-0.01063 0.0940629,-0.045464 0.0941259,-0.220456 0.123291,-0.32137 0.0538424,-0.186362 0.200031,-0.368834 0.362,-0.467999 -0.068,-0.024 -0.184598,-0.072835 -0.252598,-0.100835 0,-0.066646 0.160362,-0.234409 0.230204,-0.290881 -0.098283,0.025575 -0.637605,-0.00728 -0.637605,-0.104283 0.012,-0.004 0.024,-0.008 0.036,-0.012 -0.002866,-0.053071 0.133433,-0.182661 0.152976,-0.19389 -0.106504,-0.029575 -0.219496,-0.043843 -0.33274,-0.04378 -0.132409,7.88e-5 -0.265165,0.019811 -0.388236,0.057669 -0.004,-0.004 -0.00799999,-0.012 -0.016,-0.02 0.11389,-0.170866 0.341653,-0.295086 0.527999,-0.368 0.113086,-0.044252 0.229071,-0.045811 0.348,-0.03789 C 0.8205613,2.642476 0.7731913,2.486995 0.7558523,2.45635 0.8455215,2.430728 0.9442143,2.430208 1.0359933,2.440082 1.1489533,2.45224 1.2349693,2.495956 1.3252053,2.55235 1.4275673,2.508822 1.5192363,2.479862 1.6479923,2.460082 1.5782133,2.310523 1.4393473,2.350035 1.2904813,2.314381 1.3038203,2.279279 1.3157573,2.264995 1.3297573,2.248775 1.219222,2.241817 1.071694,2.1567462 0.998734,2.1280846 1.0176631,2.0712658 1.106293,2.0343839 1.152135,2.0135646 1.1030485,1.9841946 1.035411,1.9461001 0.970844,1.9216592 0.840891,1.8724939 0.696167,1.85799 0.560026,1.8343207 c 0,-0.082362 0.441527,-0.209874 0.559999,-0.200771 0.068441,0.00526 0.137165,0.00757 0.198425,0.025937 z M 5.35004,3.37998 C 5.315331,3.357681 5.282576,3.331429 5.249977,3.306075 5.238938,3.350264 5.226197,3.394248 5.208009,3.434327 5.258812,3.51691 5.298654,3.546973 5.3293,3.541571 5.357741,3.536531 5.398922,3.4745 5.35004,3.379981 Z M 1.06836,4.71116 C 1.032817,4.678058 1.003132,4.642625 0.9834625,4.610058 0.9742345,4.655995 0.9454783,4.703381 0.9074941,4.744294 0.9425807,4.841916 0.9778405,4.882247 1.0113681,4.883396 1.0431631,4.884466 1.1022971,4.826042 1.0683601,4.71116 Z M 1.326312,1.70023 C 1.2749105,1.6872379 1.199887,1.6713009 1.1568,1.6721355 c -0.16189,0.00315 -0.316346,0.041575 -0.473984,0.116834 0.143228,-0.014756 0.297858,-0.028772 0.393181,-0.016882 0.182992,0.022835 0.32022,0.107401 0.459999,0.22 0.041906,0.033748 0.072,0.08 0.108,0.124 0.028,0.004 0.056,0.012 0.088,0.02 C 1.753917,2.0586855 1.645287,1.9831115 1.600563,1.9337095 1.614327,1.9092525 1.647949,1.9166075 1.667996,1.9045915 1.637209,1.8482135 1.601445,1.7964495 1.56313,1.7504655 1.510437,1.6872215 1.442091,1.6283715 1.360233,1.5880875 c 0,0.017181 -0.00318,0.070425 -0.00131,0.090157 0.00751,0.078661 0.089433,0.142283 0.137071,0.201842 l -0.02,0.016 C 1.407506,1.8372835 1.354372,1.7923075 1.326309,1.7002285 Z m 2.9537,2.70543 C 4.351839,4.385251 4.438122,4.368211 4.498012,4.41394 4.541067,4.446838 4.56176,4.501404 4.571004,4.580145 4.529602,4.568224 4.480925,4.561641 4.4285,4.562602 4.240327,4.566062 4.070532,4.663893 3.963997,4.816082 3.925603,4.870964 3.888044,4.923011 3.859477,4.979909 3.776989,5.144239 3.737146,5.325137 3.655997,5.500082 3.601367,5.617877 3.520202,5.723798 3.45132,5.812727 3.338737,5.958034 3.223919,6.064553 3.067998,6.164081 2.897494,6.272931 2.790345,6.319482 2.583999,6.348081 2.243496,6.3952966 1.876378,6.2114391 1.8,5.8600851 1.737165,5.5709201 1.941291,5.2934241 2.235999,5.3080861 c 0.099716,0.00496 0.218173,0.076157 0.243244,0.172299 0.00617,0.023716 0.00472,0.053638 -0.00687,0.127701 -0.013732,0.087795 -0.122189,0.178141 -0.210315,0.185669 -0.030583,0.00261 -0.089748,0.011779 -0.094063,-0.025669 -0.00523,-0.045527 0.013417,-0.078346 0.048236,-0.091496 0.062094,-0.023464 0.161181,-0.010535 0.165197,-0.080992 0.00148,-0.026236 -0.00225,-0.053858 -0.00543,-0.079512 -0.00877,-0.070551 -0.145449,-0.122079 -0.196866,-0.104409 -0.18633,0.063874 -0.265984,0.210031 -0.243134,0.408409 0.032535,0.282094 0.307118,0.391952 0.566346,0.385842 0.088724,-0.00208 0.187874,-0.013197 0.265653,-0.057842 0.224047,-0.128598 0.318488,-0.227401 0.435228,-0.446425 0.059496,-0.111606 0.078283,-0.20874 0.092772,-0.333574 0.036252,-0.312866 -0.050488,-0.631542 -0.236,-0.887999 -0.103417,-0.142992 -0.192488,-0.184882 -0.341165,-0.284 l 0.042992,-0.065023 c 0.056,0.024 0.159102,0.101953 0.299102,0.173953 0.150331,0.208157 0.273527,0.415873 0.311559,0.66307 0.01885,0.122551 0.022976,0.249559 0.00351,0.371999 -0.036866,0.231842 -0.043842,0.233449 -0.12,0.387999 -0.067716,0.137449 -0.160787,0.243197 -0.276,0.344 0,0.008 0,0.016 0,0.024 0.138897,-0.11285 0.225464,-0.206 0.311322,-0.359464 0.06474,-0.115685 0.094457,-0.240204 0.124677,-0.368535 0.014787,-0.062756 0.022457,-0.131575 0.024,-0.2 0.00243,-0.108031 0.00357,-0.221086 -0.012,-0.332 -0.032409,-0.230708 -0.054551,-0.424724 -0.069606,-0.460236 0.048,0.012 0.037606,0.00424 0.089606,0.020236 0.008,-0.024 0.022835,-0.059071 0.034835,-0.087071 0.016,0.112 0.033165,0.235071 0.053165,0.35107 0.004,0.152 0.01663,0.304141 0.00942,0.455999 -0.00479,0.101134 -0.027087,0.199827 -0.052,0.302708 C 3.464201,5.5395011 3.409115,5.6274071 3.362658,5.7385561 3.31132,5.8614221 3.121824,6.0086031 3.054753,6.1180671 3.137462,6.0805711 3.367745,5.8182251 3.411682,5.7575642 3.524642,5.6016592 3.576186,5.4194541 3.627997,5.2360841 3.655273,5.0852501 3.66343,4.9437061 3.65995,4.8013601 3.65715,4.6870921 3.646816,4.5722581 3.632816,4.4517231 c -0.017827,-0.153606 0.00154,-0.31496 0.011071,-0.471228 0.0058,-0.094315 0.042866,-0.197338 0.05359,-0.317574 0.04,-0.008 0.09852,-0.018835 0.138519,-0.026835 -0.080031,0.355685 -0.090252,0.654267 -0.06,1.012 -0.008,0.056 -0.02,0.112 -0.032,0.172 0.008,0 0.016,0 0.024,0 0.077228,-0.251023 0.170976,-0.472991 0.31622,-0.694109 0.067984,-0.103512 0.145354,-0.20148 0.244015,-0.300141 0.019685,0.173464 -0.058976,0.285401 -0.148236,0.482251 0.044,-0.06 0.092,-0.12 0.14,-0.184 0.122598,-0.091937 0.271291,-0.138126 0.426283,-0.138126 0.111307,0 0.267889,0.031039 0.36885,0.074299 -0.17222,-0.00764 -0.385165,0.00617 -0.547133,0.071827 -0.158582,0.064252 -0.284425,0.146929 -0.406314,0.258141 -0.129449,0.118016 -0.23948,0.259763 -0.335354,0.405858 -0.05611,0.120252 -0.096693,0.231779 -0.122331,0.36 0.008,0 0.016,0 0.024,0 0.036,-0.1 0.072,-0.204 0.112,-0.308 0.024,-0.044 0.052,-0.088 0.08,-0.132 0.077669,-0.103953 0.15696,-0.208157 0.25233,-0.300299 0.104772,-0.101197 0.228945,-0.187874 0.391669,-0.2437 0.208724,-0.071622 0.436047,-0.099842 0.654787,-0.07411 -0.27148,0.081433 -0.478897,0.097023 -0.696739,0.29811 -0.061354,-0.060787 -0.151701,-0.043685 -0.23063,-0.019969 -0.031701,0.00953 -0.040882,0.016772 -0.038976,0.021669 0.00192,0.00494 0.014929,0.00756 0.027575,0.00787 z M 3.514265,5.49475 3.508915,5.49303 C 3.521041,5.409172 3.583214,5.132227 3.58408,5.096621 3.58756,4.952968 3.58151,4.813409 3.568127,4.670669 3.552678,4.506197 3.545938,4.465819 3.508001,4.248071 c 0.024,-0.06 0.076268,-0.204882 0.100268,-0.264882 -0.0037,0.158252 -0.022661,0.30907 -0.00805,0.469007 0.010787,0.118047 0.024205,0.235039 0.02822,0.352141 C 3.631779,4.901345 3.629449,4.998604 3.61236,5.096226 3.601069,5.160714 3.533258,5.455312 3.514266,5.494745 Z M 0.468015,4.66009 C 0.4319206,4.553791 0.4926606,4.483429 0.584015,4.43609 0.6121567,4.421507 0.659574,4.43107 0.6450385,4.477964 0.6346133,4.511649 0.5865031,4.536373 0.5807866,4.58409 c -0.003134,0.026157 0.005717,0.049527 0.0270078,0.058945 0.0361102,0.016 0.10496,0.014346 0.135779,-0.00735 0.111527,-0.07863 0.0960471,-0.237023 0.152441,-0.36359 0.0799054,-0.179275 0.165905,-0.345464 0.348,-0.44085 l 0.087748,0.028693 c -0.136598,0.09759 -0.207669,0.263023 -0.251748,0.416157 -0.040898,0.14211 0.10663,0.335322 0.260204,0.313637 0.060866,-0.00858 0.118378,-0.041118 0.139795,-0.101638 0.02126,-0.06011 -0.039905,-0.219417 0.07137,-0.196519 0.092157,0.018961 0.132079,0.16685 0.127228,0.247795 -0.00899,0.149874 -0.208913,0.25085 -0.34211,0.245307 C 1.2015094,4.779067 1.1208954,4.714457 1.0400134,4.620095 0.9618403,4.531859 0.9705489,4.481654 0.9640135,4.401292 c -0.008,0.004 -0.016,0.008 -0.028,0.016 0.004,0.08 0.008,0.098803 0.012,0.182803 -0.0516377,0.103291 -0.130504,0.20285 -0.258,0.215134 -0.0839369,0.00809 -0.198535,-0.086031 -0.222,-0.155134 z m 2.95031,0.279858 c 0.00257,0.011969 1.57e-5,0.032583 -0.00584,0.03452 C 3.406645,4.976388 3.397398,4.959696 3.393698,4.939397 3.377777,4.852248 3.330816,4.670279 3.268722,4.549256 3.214817,4.44417 3.161588,4.352878 3.139982,4.322185 c 0.024,0.004 0.145968,0.040945 0.173968,0.048945 0.040535,0.142472 0.076236,0.422881 0.104378,0.568818 z m -1.47623,-0.5337 C 2.010725,4.360973 2.038536,4.331335 2.056016,4.256091 2.13611,3.911462 2.066362,3.572486 2.436015,3.400092 2.488771,3.375494 2.567086,3.334565 2.63403,3.316297 2.540361,3.490816 2.526707,3.692706 2.555007,3.779635 2.596109,3.905824 2.634235,4.015162 2.724377,4.100139 2.545165,4.323162 2.322472,4.421446 2.117716,4.429414 2.065574,4.431434 1.989244,4.414233 1.942094,4.406249 Z M 3.413805,4.34787 C 3.3242146,4.3295394 3.216026,4.3101221 3.11601,4.2720907 3.006672,4.2305317 2.872247,4.1717757 2.779743,4.0852407 2.6947352,4.005666 2.618672,3.8825327 2.600011,3.7680917 c -0.029228,-0.179086 -0.015449,-0.288882 0.084,-0.447999 0.092,-0.032 0.184,-0.068 0.28,-0.104 0.044,-0.028 0.107543,-0.067307 0.155543,-0.095307 0.298173,0 0.500236,0.24833 0.521007,0.528613 0.013827,0.186488 -0.141575,0.528598 -0.226756,0.698472 z M 1.936865,3.907398 c 0.012,-0.02 0.076173,-0.023464 0.120173,-0.031464 l -0.00693,0.04885 C 2.034108,3.926814 1.956848,3.910028 1.936864,3.907398 Z M 1.395779,3.8333037 C 1.173228,3.7673825 1.073953,3.7200917 1.013953,3.6880917 c 0.047543,-0.112126 0.132929,-0.170472 0.197149,-0.238504 0.11348,-0.120252 0.294456,-0.206047 0.440614,-0.272472 0.240756,0.121023 0.444362,0.203496 0.707605,0.218976 -0.138992,0.013732 -0.313102,0.393622 -0.295212,0.439999 -0.052,0.008 -0.129968,0.039102 -0.181968,0.051102 -0.177701,0 -0.314897,-0.0031 -0.486362,-0.05389 z m 2.29449,-0.222362 c -0.027638,-0.276456 -0.232693,-0.520424 -0.532141,-0.52285 0.067984,-0.033071 0.219653,-0.142866 0.273968,-0.184157 0.274283,0.045118 0.523259,0.142677 0.800645,0.151086 0.070126,0.00211 0.143779,0.00813 0.195795,-0.00219 -0.079213,0.257527 -0.335606,0.418503 -0.556519,0.52896 -0.064,0.008 -0.113748,0.01715 -0.181748,0.02915 z m 1.04801,-0.243338 C 4.742309,3.3300127 4.75968,3.3170367 4.782751,3.3168167 4.846924,3.3162025 4.89894,3.3856517 4.9619,3.3760607 5.028294,3.3659817 5.073506,3.2574467 5.064687,3.2011157 5.034419,3.0080447 4.886262,2.9290217 4.72242,2.8894787 4.593271,2.8582977 4.389381,2.9368177 4.295302,3.0194317 c -0.031464,-0.00162 -0.072236,0.00208 -0.165386,-0.00633 0.133716,-0.143527 0.377118,-0.242189 0.557385,-0.242189 0.413606,0 0.533432,0.444677 0.852755,0.439291 0.088457,-0.00148 0.110079,-0.069039 0.111386,-0.152 4.409e-4,-0.028299 -0.00836,-0.038614 -0.023449,-0.06611 -0.032,-0.028 -0.075102,-0.04948 -0.104,-0.088 -0.030504,-0.040661 0.036661,-0.073716 0.067417,-0.075213 0.081118,-0.00389 0.169197,0.103338 0.200582,0.167212 0.029858,0.060772 0.027685,0.154031 -0.00499,0.215118 -0.056252,0.105212 -0.139386,0.18337 -0.265511,0.185512 -0.111638,0.00189 -0.161512,-0.040646 -0.237496,-0.11663 -0.108,-0.16 -0.108,-0.16 -0.132,-0.176 -0.004,0.048 -0.004,0.048 0.036,0.168 0,0.124598 -0.030472,0.271984 -0.18811,0.289401 -0.070756,0.00775 -0.271889,-0.097417 -0.261606,-0.19389 z M 0.619719,3.3039345 C 0.6637819,3.2074779 0.720805,3.1532265 0.784396,3.1230375 0.914648,3.0612108 1.072632,3.1002029 1.204238,3.0840927 L 1.168994,3.0575416 C 1.020475,3.0476518 0.913656,3.0436834 0.768018,3.0800928 0.65438,3.0349748 0.532569,3.0214157 0.406696,3.0238882 c -0.08337,0.00162 -0.168535,0.010299 -0.254315,0.021464 0.187685,-0.068236 0.405448,-0.12959 0.606298,-0.127102 0.274803,0.0034 0.551306,0.116094 0.8094,0.199338 l 0.058992,0.034646 c -0.14822,0.059291 -0.286204,0.133275 -0.414582,0.229559 -0.179118,0.019181 -0.43085,0.0031 -0.592771,-0.077858 z m 1.02846,-0.200141 C 1.528762,3.0116361 1.43051,2.9067225 1.294274,2.8099355 1.2512662,2.7793844 1.184621,2.7611167 1.112747,2.7506757 c 0.165055,-0.122724 0.32296,-0.213559 0.531275,-0.242582 0.136598,-0.019039 0.290031,-0.00548 0.423999,0.028 0,0.096 -0.029386,0.19822 -0.00866,0.296 0.051527,0.243165 0.256283,0.428488 0.503858,0.459432 l -0.00444,0.027228 C 2.506747,3.3366277 2.440527,3.3457927 2.384023,3.3480917 2.150527,3.3576517 1.8328579,3.2462807 1.648181,3.1037927 Z M 2.56802,3.2600925 C 2.334965,3.2230374 2.138336,3.0472265 2.101784,2.8160305 2.072382,2.6301565 2.138493,2.4112275 2.21202,2.2480945 c 0.08389,-0.186078 0.126583,-0.18211 0.176,-0.23411 0.076,0.004 0.164897,-0.00635 0.243055,0.010882 0.195275,0.043024 0.193291,0.060488 0.297007,0.120504 0.161937,0.093716 0.275795,0.2837 0.297574,0.469952 0.015937,0.136189 -0.030142,0.253952 -0.097638,0.400771 -0.015921,0.035748 -0.032047,0.056803 -0.052047,0.074992 -0.112693,0.102598 -0.349417,0.19422 -0.507952,0.169008 z M 1.53684,3.0776365 C 1.28325,2.9983925 1.033534,2.8883135 0.762274,2.8845185 c -0.195165,-0.00274 -0.487732,0.051953 -0.654409,0.148535 0.144409,-0.128661 0.27263,-0.208409 0.404157,-0.252819 0.146708,-0.049543 0.22926,-0.056268 0.377968,-0.060142 0.0519999,0.044 0.0973227,0.094803 0.158031,0.132 0.064047,0.03926 0.14,0.064 0.212,0.1 0,-0.008 0.004,-0.016 0.008,-0.024 -0.063228,-0.02874 -0.14526,-0.059386 -0.201764,-0.099291 -0.037575,-0.026551 -0.0879054,-0.074236 -0.12913401,-0.116567 -0.0810708,-0.088819 -0.135779,-0.210787 -0.133102,-0.232141 0.0599999,0 0.154661,-0.00957 0.21447201,-0.00501 0.049464,0.00378 0.238047,0.056724 0.262598,0.105827 -0.084693,0.048472 -0.166708,0.107181 -0.213071,0.159181 l -4.725e-4,0.03389 c 0.06,0.016 0.122252,0.033654 0.176472,0.06611 0.09811,0.058756 0.223937,0.145921 0.292819,0.237543 z M 3.15933,3.0466755 C 3.230448,2.9044235 3.285944,2.7607385 3.272054,2.6121095 3.252542,2.4028655 3.098779,2.2007245 2.928228,2.0895115 2.967267,1.9226145 3.049834,1.8287245 3.172023,1.7120945 3.312495,1.6278115 3.43144,1.5548195 3.586731,1.5004725 c -1.102e-4,0.197559 0.058094,0.506928 0.071795,0.698157 0,0.336189 -0.089921,0.496881 -0.334503,0.741464 -0.044,0.032 -0.116693,0.074583 -0.164693,0.106583 z m 0.304693,-0.182582 c 0.185842,-0.228724 0.254866,-0.382456 0.259102,-0.673842 0.13011,-0.092283 0.34885,-0.171905 0.492991,-0.186078 0.080834,-0.00795 0.164299,-1.575e-4 0.259905,0.0097 0,0.376614 -0.264204,0.761117 -0.591149,0.947936 C 3.799628,2.9430548 3.615061,2.891795 3.464022,2.8640943 Z m -1.388,-0.364 c -0.032,-0.032 -0.055575,-0.130126 -0.136,-0.232 -0.040346,-0.051102 -0.1,-0.088 -0.152,-0.132 0.00328,-0.071716 -0.080079,-0.139464 -0.121559,-0.191968 0.11337,-0.030283 0.257574,0.00427 0.363433,0.046598 0.05948,0.049559 0.120882,0.128976 0.163464,0.192866 -0.046173,0.097905 -0.106646,0.222866 -0.117338,0.316504 z M 1.696024,2.4532593 C 1.627032,2.3310863 1.511662,2.3194803 1.3413,2.2919683 c 0.039858,-0.06663 0.224645,-0.127921 0.290677,-0.134189 0.085921,-0.00814 0.183071,0.032315 0.244047,0.090315 0.094031,0.089433 0.113748,0.150047 0.157748,0.242047 C 1.954276,2.4739364 1.795016,2.4448813 1.696024,2.4532593 Z M 1.352859,2.2287553 C 1.247631,2.2096215 1.13593,2.1556688 1.039395,2.1115113 c 0.086897,-0.055858 0.155732,-0.092378 0.229559,-0.093417 0.050535,-7.087e-4 0.102929,0.02063 0.167071,0.042 C 1.403631,2.0156853 1.344135,1.9917793 1.286214,1.9920633 1.259159,1.992205 1.229726,1.9942533 1.195254,1.9965233 1.136986,1.9573733 1.061569,1.9079883 0.980325,1.8849013 0.90527,1.8635783 0.848703,1.8412633 0.682955,1.8157043 c 0.0895117,-0.017685 0.309244,-0.01474 0.389023,-0.00964 0.138913,0.00888 0.286787,0.108693 0.396047,0.186031 0.046142,0.032677 0.105527,0.091795 0.149527,0.135795 -0.101527,0.010378 -0.197732,0.057748 -0.264693,0.100866 z M 2.2127,2.156094 c -0.068,-0.1 -0.144677,-0.172 -0.196677,-0.248 C 1.989314,1.851133 1.93533,1.812645 1.966716,1.636835 2.034354,1.622945 2.149235,1.702032 2.175881,1.724236 2.2207,1.759417 2.258653,1.803417 2.287802,1.854267 2.298054,1.881637 2.341629,1.973857 2.341629,1.996361 2.305629,2.044361 2.2527,2.108093 2.2127,2.156093 Z M 3.70401,2.132283 C 3.6764037,1.994189 3.6547975,1.863984 3.6547975,1.722819 c 0.049024,-0.178204 0.165638,-0.42044 0.289559,-0.501212 0.019134,0.072 0.00876,0.162315 -0.00638,0.238299 -0.016,0.076 -0.04378,0.13011 -0.059779,0.21011 l 0.055512,-0.062205 c 0.016,-0.064 0.03589,-0.137212 0.05589,-0.205212 0.022378,-0.051716 0.241149,-0.160252 0.452188,-0.23559 0.160519,-0.057307 0.332503,-0.087905 0.431291,-0.085716 -0.108173,0.025213 -0.254897,0.070079 -0.34507,0.118803 -0.231386,0.125023 -0.40233,0.292598 -0.575999,0.491999 -0.121102,0.139071 -0.178929,0.272614 -0.248,0.440188 z M 2.89105,2.0802043 2.8538532,2.0579051 c -0.017055,-0.151842 -0.028882,-0.301118 0.026535,-0.431511 0.012315,-0.028992 0.172267,-0.214204 0.230236,-0.257716 0.01674,0.082535 0.039984,0.209858 0.031244,0.307322 -0.125527,0.139118 -0.194535,0.230063 -0.250819,0.404204 z m 0.863117,0.037307 c 0.031685,-0.095071 0.121937,-0.26663 0.185842,-0.345417 0.162693,-0.200551 0.344204,-0.386535 0.567999,-0.515999 0.086488,-0.050047 0.311716,-0.137401 0.355716,-0.137401 -0.183827,0.114897 -0.339055,0.336803 -0.499716,0.481401 -0.131071,0.030835 -0.247511,0.059953 -0.345889,0.15833 l 0.00189,0.031543 c 0.125401,-0.10748 0.229307,-0.135968 0.389873,-0.151669 0.032,0.004 0.138157,0.00118 0.174157,0.00918 -0.115638,0.085905 -0.239086,0.217307 -0.348692,0.313212 -0.184,0.00654 -0.317322,0.074661 -0.48118,0.156819 z M 2.824027,2.0480943 C 2.760011,2.0124883 2.671114,1.9852913 2.60313,1.9840943 2.581224,1.8716373 2.581461,1.7414013 2.592846,1.6275283 c 0.018835,-0.042378 0.11685,-0.182567 0.156063,-0.192346 0.024,0.048 0.057858,0.130378 0.081858,0.182378 -0.030898,0.158929 -0.029228,0.273102 -0.00674,0.430535 z M 2.3925,1.9800943 C 2.354264,1.9426773 2.338862,1.9290863 2.339035,1.8642993 c 3.937e-4,-0.141953 0.036803,-0.263952 0.124992,-0.376204 0.028,0.04 0.064898,0.08 0.092898,0.124 -0.00961,0.134488 -0.016976,0.231244 -8.976e-4,0.368 -0.046724,-0.010583 -0.103433,-0.00822 -0.163527,0 z M 2.301776,1.8100633 C 2.27491,1.7626933 2.19376,1.6850083 2.151839,1.6610553 c 0,-0.135606 0.00334,-0.22096 0.057527,-0.342897 0.063937,0.040126 0.146708,0.084126 0.214724,0.12811 -0.046409,0.090031 -0.11074,0.250078 -0.122315,0.363795 z M 2.050879,1.6206143 c 0,-0.129575 0.026457,-0.22411 0.05789,-0.349889 0.067984,0.025858 0.030472,0.00353 0.066488,0.029606 -0.064079,0.135858 -0.036,0.220441 -0.057102,0.348976 -0.00433,-0.00735 -0.055465,-0.027984 -0.067276,-0.028693 z m 0.522487,-0.05074 C 2.495886,1.4149143 2.314673,1.3067563 2.156028,1.2400953 1.969209,1.1615753 1.801714,1.1539693 1.601509,1.1456383 c -0.00265,-0.02652 8.504e-4,-0.053055 -0.00178,-0.07959 0.26,0.012 0.276299,0.014047 0.428299,0.042047 0.05,0.01874 0.108614,0.029386 0.159449,0.05474 0.139874,0.069764 0.346393,0.220756 0.441275,0.34274 -0.017874,0.02263 -0.037527,0.041685 -0.055386,0.064299 z M 1.63606,1.5552283 C 1.552391,1.4715593 1.533808,1.4022993 1.492029,1.3218903 1.532927,1.3068663 1.594454,1.1779533 1.589257,1.1697013 1.614076,1.2441893 1.643446,1.4775753 1.63606,1.5552283 Z M 1.42995,1.5103303 c -0.02,-0.04 -0.037543,-0.088094 -0.037543,-0.120094 0.004,-0.004 0.06063,-0.03063 0.06863,-0.03863 0,0.014425 0.031575,0.041968 0.025181,0.071968 L 1.42995,1.5103303 Z m 1.52329,-0.04674 c 0,-0.19663 0.018331,-0.426913 0.138771,-0.587495 0.012693,0.0679999 0.017827,0.136016 0.016,0.204 l 0.028,-0.034205 C 3.137461,1.0055283 3.132581,0.9561266 3.133291,0.9080953 3.262582,0.7987093 3.496708,0.6288363 3.6657,0.6288363 3.6097,0.6688362 3.475118,0.7261433 3.420015,0.7760963 3.215023,0.9618753 3.107401,1.1485993 3.01474,1.4000953 3.00674,1.3972253 2.965228,1.4514813 2.953244,1.4635913 Z M 0.6968,1.1126613 c 0.0291496,0.024299 0.0693542,0.052961 0.102094,0.061764 0.02,-0.012 0.0717322,-0.042 0.0877322,-0.05 -0.0151338,0.012803 -0.117653,-0.03652 -0.152567,-0.074236 -0.0288031,-0.031118 0.006189,-0.035339 0.017937,-0.024378 0.0377795,0.03526 0.140787,0.084693 0.177716,0.077559 0.028,-0.012 0.0972755,-0.022882 0.121275,-0.030882 0.039386,-0.0984881 0.087039,-0.133496 0.145701,-0.130834 0.040126,0.001827 0.087858,0.0186299 0.147323,0.0384409 0,0.012 0,0.02 0,0.028 -0.039386,-0.00739 -0.09022,-0.0317165 -0.135984,-0.0324252 -0.058803,-9.2913e-4 -0.109275,0.0294803 -0.116205,0.104016 -0.00954,0.102614 0.121118,0.178992 0.223071,0.177905 0.046362,-4.882e-4 0.086772,-0.017008 0.105401,-0.054299 0.00409,-0.00822 0.00468,-0.017464 1.89e-4,-0.02778 l 0.030205,0.00337 c 0.016976,0.00954 0.020016,0.024976 0.014173,0.035843 -0.02685,0.049843 -0.077402,0.071559 -0.134268,0.072961 -0.116362,0.0029 -0.259118,-0.079102 -0.278819,-0.177716 L 0.9677743,1.128017 c -0.005827,0.069984 0.0237952,0.084094 0.0740156,0.100772 0.016724,0.00556 0.025291,0.014441 0.024063,0.020756 -0.00112,0.00576 -0.010425,0.00943 -0.029008,0.00655 C 0.9509553,1.242788 0.9577584,1.233733 0.92742788,1.142725 c -0.0187244,0.00162 -0.0452283,0.018158 -0.05537,0.02652 -0.0195748,0.032362 0.0110394,0.091307 0.0399527,0.10685 0.008614,0.00713 0.0105827,0.013417 0.007748,0.016976 -0.00474,0.00594 -0.0228661,0.00443 -0.0457165,-0.012898 -0.0309763,-0.022 -0.0372913,-0.04 -0.0339527,-0.088394 -0.0285511,0.00713 -0.0767558,0.045527 -0.106661,0.076142 0.130189,0.092252 0.265071,0.132724 0.42491302,0.12811 0.199638,-0.00575 0.379622,-0.080441 0.404157,-0.289417 0.026409,-0.22481896 -0.280267,-0.26932196 -0.439732,-0.26651896 -0.079858,0.001402 -0.35568502,0.0624881 -0.43110202,0.18368496 -0.0271338,0.024016 -0.0260472,0.049858 -0.0346299,0.069858 -0.0181417,0.044598 -0.001039,0.111338 0.0429448,0.155716 0.016,-0.008 0.0604881,-0.045575 0.0724881,-0.053575 -0.008331,0.00717 -0.0597165,-0.025087 -0.0827243,-0.050079 -0.009465,-0.010284 -0.0184724,-0.015307 -0.0191338,-0.023685 -7.5591e-4,-0.00951 0.018,-0.012 0.0261889,-0.00935 z m 2.45537,0.263134 c -0.004,-0.016 -0.00416,-0.039701 -0.012157,-0.059701 -0.026095,0.0083 -0.048567,0.022031 -0.067417,0.041165 0.047008,-0.211559 0.217165,-0.408787 0.371574,-0.552456 0.060394,-0.0562046 0.14011,-0.102079 0.164913,-0.0994644 -0.07022,0.100016 -0.171086,0.246771 -0.27307,0.346755 -0.036,0.02 -0.072,0.049291 -0.108,0.069291 l 0,0.038709 c 0.044,-0.024 0.142724,-0.097055 0.186724,-0.125055 0.084047,-0.00614 0.107228,0.00219 0.117622,0.013433 -0.089023,0.099811 -0.253622,0.285133 -0.380188,0.327322 z M 2.237715,1.1407243 c -0.02,-0.010299 -0.037748,-0.01948 -0.070079,-0.026677 0.013339,-0.075748 0.11948,-0.211842 0.164378,-0.281952 0.024787,0.008016 0.041591,-0.003984 0.064,-0.012 C 2.3956518,0.8455126 2.3953053,0.8709299 2.394954,0.8963314 2.339993,0.9413707 2.27812,1.0571654 2.23771,1.1407244 Z M 2.459053,0.9251813 C 2.442077,0.8899058 2.444014,0.862331 2.444014,0.8240953 c 0.085905,0.059181 0.123039,0.063307 0.22,0.0719999 0.056,0.0799999 0.056,0.0799999 0.08,0.152 -0.103606,0 -0.232913,-0.014898 -0.28496,-0.122913 z M 1.596015,1.0200946 C 1.577369,0.9666931 1.55233,0.9189606 1.496739,0.8863466 1.525652,0.859071 1.626849,0.7134646 1.645463,0.6718426 c 0.014063,0.0237165 0.022063,0.0583936 0.024441,0.0963936 0.00444,0.0715117 -0.00968,0.209071 -0.07389,0.251858 z M 1.396929,0.8510086 c 0,-0.028 0.016677,-0.101811 0.012677,-0.133811 0.019653,0.0189134 0.05559,0.121685 0.058913,0.155433 -0.008,0.004 -0.05959,-0.029622 -0.07159,-0.021622 z m 1.22863,-1.575e-5 c -0.064,-0.001071 -0.120551,-0.0339527 -0.212236,-0.0885826 0.010772,-0.0970077 0.039827,-0.149606 0.106693,-0.222315 0.111386,-0.121118 0.332692,-0.185039 0.492629,-0.185827 0.039118,-1.8897e-4 0.150708,0.0102047 0.17274,0.0542676 -0.024992,0.015622 -0.080016,0.0266299 -0.115842,0.0464881 -0.112409,0.0622834 -0.157779,0.199244 -0.249606,0.292614 -0.062661,0.0637007 -0.103149,0.0919841 -0.194378,0.103354 z m -0.607338,-0.214472 c 0.040394,-0.017874 0.237905,0.0362362 0.287118,0.0407873 -0.00835,0.0302362 0.03915,0.0934959 0.057701,0.113433 -0.048756,0.0133543 -0.133401,-8.3464e-4 -0.184488,-0.025874 -0.051512,-0.0252283 -0.141307,-0.071244 -0.16033,-0.128346 z m 0.35137,0.111055 c -0.029354,-0.0463779 -0.031228,-0.147984 -0.021527,-0.190504 0.039402,-0.172756 0.141118,-0.305118 0.307527,-0.404992 -0.022236,0.0742204 -0.056929,0.178693 -0.045354,0.264031 -0.112283,0.0676062 -0.218551,0.162913 -0.240645,0.331464 z m 0.271307,-0.3497 c 0.00173,-0.087244 0.01537,-0.174504 0.055118,-0.261779 0.084,-0.0679999 0.116031,-0.0822361 0.144031,-0.0902361 -0.050976,0.0920156 -0.070866,0.198252 -0.068031,0.290236 -0.050409,0.0161575 -0.094992,0.0361732 -0.131118,0.0617794 z m 0.167118,-0.0577794 c 0.00813,-0.0610393 0.012772,-0.184441 0.051102,-0.235559 0.044063,-0.0280315 0.286015,-0.0400314 0.291606,-0.0137953 0.0049,0.0392283 -0.036882,0.186945 -0.062677,0.221354 -0.08,0.008 -0.196031,0.016 -0.280031,0.028 z"
   class="fil28"
   id="_262869696" />
  </g>
 </g></g>
</svg>