<?xml version="1.0" encoding="UTF-8" standalone="no"?>
<!-- Created with Inkscape (http://www.inkscape.org/) -->

<svg
   xmlns:dc="http://purl.org/dc/elements/1.1/"
   xmlns:cc="http://creativecommons.org/ns#"
   xmlns:rdf="http://www.w3.org/1999/02/22-rdf-syntax-ns#"
   xmlns:svg="http://www.w3.org/2000/svg"
   xmlns="http://www.w3.org/2000/svg"
   xmlns:sodipodi="http://sodipodi.sourceforge.net/DTD/sodipodi-0.dtd"
   xmlns:inkscape="http://www.inkscape.org/namespaces/inkscape"
   width="64px"
   height="64px"
   id="svg3267"
   version="1.1"
   inkscape:version="0.47 r22583"
   sodipodi:docname="water-molecule.svg">
  <defs
     id="defs3269">
    <inkscape:perspective
       sodipodi:type="inkscape:persp3d"
       inkscape:vp_x="0 : 32 : 1"
       inkscape:vp_y="0 : 1000 : 0"
       inkscape:vp_z="64 : 32 : 1"
       inkscape:persp3d-origin="32 : 21.333333 : 1"
       id="perspective3275" />
    <inkscape:perspective
       id="perspective3306"
       inkscape:persp3d-origin="0.5 : 0.33333333 : 1"
       inkscape:vp_z="1 : 0.5 : 1"
       inkscape:vp_y="0 : 1000 : 0"
       inkscape:vp_x="0 : 0.5 : 1"
       sodipodi:type="inkscape:persp3d" />
  </defs>
  <sodipodi:namedview
     id="base"
     pagecolor="#ffffff"
     bordercolor="#666666"
     borderopacity="1.0"
     inkscape:pageopacity="0.0"
     inkscape:pageshadow="2"
     inkscape:zoom="5.5"
     inkscape:cx="32"
     inkscape:cy="24.727273"
     inkscape:current-layer="layer1"
     showgrid="true"
     inkscape:document-units="px"
     inkscape:grid-bbox="true"
     inkscape:window-width="1045"
     inkscape:window-height="858"
     inkscape:window-x="1"
     inkscape:window-y="51"
     inkscape:window-maximized="0" />
  <metadata
     id="metadata3272">
    <rdf:RDF>
      <cc:Work
         rdf:about="">
        <dc:format>image/svg+xml</dc:format>
        <dc:type
           rdf:resource="http://purl.org/dc/dcmitype/StillImage" />
        <dc:title></dc:title>
      </cc:Work>
    </rdf:RDF>
  </metadata>
  <g
     id="layer1"
     inkscape:label="Layer 1"
     inkscape:groupmode="layer">
    <g
       id="g7301"
       transform="matrix(0.31090572,0,0,0.31090572,59.703562,-98.740783)">
      <path
         transform="translate(-0.78728251,-9.4473902)"
         d="m -20.862991,413.87607 c 0,42.176 -34.190403,76.3664 -76.366402,76.3664 -42.175997,0 -76.366397,-34.1904 -76.366397,-76.3664 0,-42.176 34.1904,-76.3664 76.366397,-76.3664 42.175999,0 76.366402,34.1904 76.366402,76.3664 z"
         sodipodi:ry="76.366402"
         sodipodi:rx="76.366402"
         sodipodi:cy="413.87607"
         sodipodi:cx="-97.229393"
         id="path7295"
         style="fill:#00ccff;fill-opacity:0.99215686000000003;fill-rule:evenodd;stroke:#000000;stroke-opacity:1"
         sodipodi:type="arc" />
      <path
         sodipodi:nodetypes="cscsc"
         id="path7297"
         d="m -149.97732,459.93209 c 0,0 22.43755,-13.3838 58.258907,-16.53293 35.821355,-3.14913 60.620754,-2.75549 60.620754,-2.75549 0,0 9.376518,59.19396 -49.205157,69.28086 -59.439824,10.23467 -69.674504,-49.99244 -69.674504,-49.99244 z"
         style="fill:#d5f6ff;stroke:#000000;stroke-width:1px;stroke-linecap:butt;stroke-linejoin:miter;stroke-opacity:1" />
      <path
         sodipodi:nodetypes="csscsc"
         id="path7299"
         d="m -86.601076,329.24319 c -1.574565,0.39365 -18.859494,6.30093 -18.501144,30.31038 0.39364,26.37397 18.807141,75.95159 59.439834,78.72825 12.231362,0.83584 19.288422,-6.6919 19.288422,-6.6919 0,0 36.2777549,-30.0528 14.564726,-72.82363 -23.512953,-46.31636 -75.18548,-29.5231 -74.791838,-29.5231 z"
         style="fill:#d5f6ff;stroke:#000000;stroke-width:1px;stroke-linecap:butt;stroke-linejoin:miter;stroke-opacity:1" />
    </g>
  </g>
</svg>
