<?xml version="1.0" encoding="UTF-8" standalone="no"?>
<!-- Created with Inkscape (http://www.inkscape.org/) -->

<svg
   width="88"
   height="109"
   viewBox="0 0 88 109"
   version="1.1"
   id="svg5"
   inkscape:version="1.1 (c68e22c387, 2021-05-23)"
   sodipodi:docname="meditator.svg"
   xmlns:inkscape="http://www.inkscape.org/namespaces/inkscape"
   xmlns:sodipodi="http://sodipodi.sourceforge.net/DTD/sodipodi-0.dtd"
   xmlns="http://www.w3.org/2000/svg"
   xmlns:svg="http://www.w3.org/2000/svg"
   xmlns:rdf="http://www.w3.org/1999/02/22-rdf-syntax-ns#"
   xmlns:cc="http://creativecommons.org/ns#"
   xmlns:dc="http://purl.org/dc/elements/1.1/">
  <title
     id="title2452">Meditator Form</title>
  <sodipodi:namedview
     id="namedview7"
     pagecolor="#ffffff"
     bordercolor="#666666"
     borderopacity="1.0"
     inkscape:pageshadow="2"
     inkscape:pageopacity="0.0"
     inkscape:pagecheckerboard="false"
     inkscape:document-units="px"
     showgrid="false"
     inkscape:zoom="1.703125"
     inkscape:cx="157.94495"
     inkscape:cy="220.47706"
     inkscape:window-width="2461"
     inkscape:window-height="1057"
     inkscape:window-x="91"
     inkscape:window-y="-8"
     inkscape:window-maximized="1"
     inkscape:current-layer="layer1"
     showborder="true"
     fit-margin-top="0"
     fit-margin-left="0"
     fit-margin-right="0"
     fit-margin-bottom="0" />
  <defs
     id="defs2" />
  <g
     inkscape:label="Layer 1"
     inkscape:groupmode="layer"
     id="layer1"
     transform="translate(-25.931484,-9.4616534)">
    <rect
       style="fill:#ffffff;fill-opacity:0.85;stroke-width:0.264583"
       id="rect2490"
       width="88"
       height="109"
       x="25.931484"
       y="9.4616537" />
    <path
       style="fill:#000000;stroke-width:0.264583"
       d="m 34.65402,117.38112 c -1.50498,-0.28421 -5.44803,-2.73134 -6.70874,-4.16359 -2.0042,-2.27688 -2.60714,-5.53509 -1.37806,-7.44676 1.47655,-2.29655 1.97503,-2.91825 2.3399,-2.91825 0.22307,0 0.69887,-0.29329 1.05733,-0.65175 0.35847,-0.35847 1.16172,-0.82489 1.78499,-1.0365 0.62329,-0.21161 1.71154,-0.69223 2.41834,-1.06804 0.7068,-0.375808 1.4299,-0.683288 1.60688,-0.683288 0.17698,0 0.62452,-0.23813 0.99452,-0.52917 0.36999,-0.29104 0.89534,-0.52917 1.16743,-0.52917 0.272089,0 0.743689,-0.17439 1.047989,-0.38753 0.30431,-0.21314 0.61359,-0.32722 0.68731,-0.25351 0.0737,0.0737 0.59536,-0.0502 1.15923,-0.27533 0.56387,-0.22514 1.85865,-0.5824 2.8773,-0.79392 1.01864,-0.21151 2.86411,-0.68095 4.10104,-1.0432 1.23693,-0.36225 2.96333,-0.79948 3.83646,-0.97163 1.5875,-0.313 1.5875,-0.313 -0.13229,-1.79204 -2.95692,-2.54298 -5.30674,-5.13631 -6.14244,-6.77898 -0.80408,-1.580508 -0.80408,-1.580508 0.0242,-11.773954 0.45557,-5.606394 0.87712,-12.336569 0.9368,-14.955944 0.12161,-5.3379 0.4727,-7.236105 1.79847,-9.723501 1.08321,-2.032307 1.69321,-2.461485 6.26718,-4.409337 3.89439,-1.658451 7.6021,-3.722092 9.18593,-5.112713 1.5105,-1.326235 1.77298,-3.596598 0.6436,-5.566757 -0.26871,-0.468752 -0.56992,-1.657046 -0.66936,-2.640653 -0.0994,-0.983604 -0.28503,-1.723951 -0.41244,-1.645213 -0.41165,0.254415 -0.97349,-1.00279 -1.69901,-3.801833 -0.76701,-2.959126 -0.73544,-3.627559 0.16025,-3.393331 0.54974,0.143761 0.55875,0.09482 0.42108,-2.285086 -0.37909,-6.553072 1.85745,-9.99846 7.16869,-11.0433845 4.95465,-0.974768 8.77708,0.9974735 10.1009,5.2117175 0.48701,1.550352 0.55661,2.309122 0.48175,5.251757 -0.0875,3.439583 -0.0875,3.439583 0.57132,3.444682 0.92921,0.0072 0.95862,0.600623 0.15718,3.171129 -0.5205,1.669434 -0.88927,2.373657 -1.52157,2.905702 -0.64552,0.543168 -0.8829,1.008017 -1.04795,2.052119 -0.11736,0.742434 -0.51497,1.966299 -0.88358,2.719702 -0.48409,0.989444 -0.67019,1.798469 -0.67019,2.913449 0,1.499114 0.0369,1.579211 1.28043,2.777792 1.77425,1.71015 4.28134,3.153767 8.77373,5.052026 4.41708,1.866434 5.27142,2.428975 6.26575,4.125658 1.68229,2.870621 1.98607,4.731676 2.19309,13.435659 0.18187,7.64631 0.22386,8.117067 1.14463,12.832292 1.76445,9.035722 1.727,8.574127 0.83486,10.288812 -1.40311,2.69677 -2.87233,4.3761 -4.65603,5.3219 -0.53053,0.2813 -1.12584,0.66575 -1.32292,0.85432 -0.19708,0.18858 -0.69305,0.55721 -1.10215,0.81918 -1.2341,0.79027 -0.88426,1.51994 1.0084,2.10321 6.33085,1.951 14.100291,3.63133 16.790471,3.63133 1.54203,0 1.9404,0.10663 2.94733,0.78893 0.64036,0.43392 1.31312,0.791098 1.49502,0.793748 0.1819,0.003 0.33073,0.11474 0.33073,0.2491 0,0.13436 0.32441,0.62983 0.72092,1.10105 0.68465,0.81366 0.71709,0.97722 0.64487,3.25096 -0.11741,3.69628 -1.50403,6.0917 -4.17137,7.20619 -0.49228,0.20569 -1.70728,0.9666 -2.70001,1.69092 -0.99273,0.72431 -2.21391,1.39196 -2.71375,1.48366 -0.49983,0.0917 -1.3255,0.44542 -1.83483,0.78606 -1.7512,1.17123 -3.118171,1.49176 -6.967021,1.63367 -5.37286,0.19809 -10.69588,-0.69379 -17.09278,-2.86391 -2.30359,-0.78149 -2.67118,-0.8339 -4.7625,-0.67903 -1.24643,0.0923 -3.33211,0.46442 -4.63485,0.82694 -2.87496,0.80001 -9.19387,1.86363 -13.50639,2.27343 -3.77375,0.3586 -19.099709,0.52167 -20.696079,0.22021 z M 55.805569,82.36237 c 0.0804,-0.699186 -0.30103,-6.343571 -0.51039,-7.55231 -0.136,-0.785201 -0.25258,-0.469847 -0.78249,2.116667 -0.34248,1.671638 -0.90459,4.021603 -1.24915,5.22215 -0.58098,2.024309 -0.59261,2.182813 -0.1601,2.182813 0.25651,0 0.80742,0.178123 1.22423,0.395827 0.75785,0.395827 0.75785,0.395827 1.08657,-0.712549 0.1808,-0.609608 0.3569,-1.353275 0.39133,-1.652598 z m 32.74974,2.058683 c 0,-0.09637 -0.35208,-1.495356 -0.78241,-3.108854 -0.43032,-1.613498 -0.89093,-3.588478 -1.02357,-4.388843 -0.23684,-1.429115 -0.24139,-1.412512 -0.2536,0.926042 -0.0165,3.16239 0.25801,5.190128 0.81846,6.045475 0.41045,0.626423 1.24112,0.978591 1.24112,0.52618 z"
       id="path2270" />
  </g>
  <metadata
     id="metadata2450">
    <rdf:RDF>
      <cc:Work
         rdf:about="">
        <dc:title>Meditator Form</dc:title>
        <dc:source>https://commons.wikimedia.org/wiki/File:Yoga_Meditation_Pos-410px.png</dc:source>
        <dc:description>A shadow of a person in the lotus position</dc:description>
        <cc:license
           rdf:resource="http://creativecommons.org/licenses/by/4.0/" />
      </cc:Work>
      <cc:License
         rdf:about="http://creativecommons.org/licenses/by/4.0/">
        <cc:permits
           rdf:resource="http://creativecommons.org/ns#Reproduction" />
        <cc:permits
           rdf:resource="http://creativecommons.org/ns#Distribution" />
        <cc:requires
           rdf:resource="http://creativecommons.org/ns#Notice" />
        <cc:requires
           rdf:resource="http://creativecommons.org/ns#Attribution" />
        <cc:permits
           rdf:resource="http://creativecommons.org/ns#DerivativeWorks" />
      </cc:License>
    </rdf:RDF>
  </metadata>
</svg>
